<svg xmlns="http://www.w3.org/2000/svg" viewBox="0 0 214.4212 145.4632"><defs><style>.a,.b{fill:#fff;}.a{fill-rule:evenodd;}</style></defs><title>Excursions Barcelona - White</title><path class="a" d="M176.44,51.3854h-4.59A68.54,68.54,0,0,0,49.1089,35.8627l-2.8851-3.5681A72.9153,72.9153,0,0,1,176.44,51.3854M35.12,85.9334a73.1375,73.1375,0,0,1,1.0171-31.0626l3.6863,3.4363a68.8592,68.8592,0,0,0-.7781,24.5786ZM43.642,99.2451A68.5335,68.5335,0,0,0,173.7855,86.9009H178.25A72.9085,72.9085,0,0,1,40.2633,102.4366Z"/><path class="a" d="M43.034,35.0479A7.1844,7.1844,0,0,0,37.34,33.4053c-2.4061.4576-5.42,2.93-6.0322,4.5993a8.4036,8.4036,0,0,0-.21,5.4747c.6553,1.6907,2.3177,3.3542,3.7234,4.8184,1.7519,1.8251,4.6354,4.0147,6.7889,6.1321,2.1362,2.1,4.7086,4.38,6.1321,6.57a17.64,17.64,0,0,1,2.4092,6.57,19.2578,19.2578,0,0,1,0,7.2271,13.2379,13.2379,0,0,1-3.066,5.8037c-2.1352,2.336-6.4432,5.5412-9.7457,8.2124-4.8728,3.942-14.3267,11.1325-19.4913,15.44-3.9692,3.3108-8.9246,8.0126-11.4975,10.403a52.31,52.31,0,0,0-3.9425,3.942,9.47,9.47,0,0,0-1.4235,2.5185,13.6286,13.6286,0,0,0-.8759,3.1759,13.2065,13.2065,0,0,0,0,3.3945,7.8826,7.8826,0,0,0,.8759,2.4087,7.041,7.041,0,0,0,1.4235,1.971,5.8145,5.8145,0,0,0,2.0463,1.116,10.0107,10.0107,0,0,0,3.2172.6186,11.2851,11.2851,0,0,0,4.2636-.8582,10.9443,10.9443,0,0,0,3.2846-2.8474,20.96,20.96,0,0,0,1.8617-3.3945c.6934-1.2593,1.469-2.8114,2.2994-4.1611,1.0224-1.6609,2.61-4.0335,3.8327-5.8032,1.1285-1.6342,2.2638-3.2679,3.5043-4.8184,1.3136-1.6426,2.8929-3.3814,4.38-5.037,1.7707-1.971,4.0858-4.5978,6.2419-6.7894,2.2267-2.2628,4.8362-4.7991,7.1173-6.7889,2.097-1.8282,4.6354-3.668,6.57-5.1463,1.6588-1.2676,3.577-2.7376,5.037-3.7234a29.7952,29.7952,0,0,1,3.7234-2.1891,6.1908,6.1908,0,0,1,2.5185-.6579,9.5952,9.5952,0,0,1,3.066.6579,11.2194,11.2194,0,0,1,2.4087,1.4229c1.0584.7447,2.6367,2.02,3.942,3.0467,1.3691,1.0768,2.871,2.2471,4.2709,3.4138,1.6243,1.3539,3.96,3.4311,5.4747,4.7086,1.19,1.0035,2.4212,1.9569,3.6136,2.9567,1.2415,1.04,2.586,2.2534,3.8327,3.2846,1.197.99,2.553,2.0426,3.6481,2.9.9669.7578,2.1179,1.69,2.9222,2.2466a19.2123,19.2123,0,0,0,1.9035,1.095,19.9322,19.9322,0,0,0,2.2278,1.1139,8.52,8.52,0,0,0,2.3512.6181,8.8936,8.8936,0,0,0,3.3725-.1992,5.8679,5.8679,0,0,0,2.2994-1.971,7.2726,7.2726,0,0,0,1.3142-2.6283,8.7722,8.7722,0,0,0,.1909-3.1753,6.14,6.14,0,0,0-1.505-3.2846,59.6451,59.6451,0,0,0-5.913-4.49c-2.0259-1.4956-4.307-3.0111-6.2414-4.49-1.8345-1.402-3.5869-2.9081-5.366-4.38-2.0071-1.66-4.9089-3.9781-6.68-5.5846a19.6346,19.6346,0,0,1-3.942-4.0513A15.2356,15.2356,0,0,1,78.0747,69.65a11.8411,11.8411,0,0,1,0-3.942,7.5889,7.5889,0,0,1,1.4235-3.1753,54.2655,54.2655,0,0,1,5.037-5.037c2.3909-2.19,6.6435-5.7671,9.3079-8.1031,2.2361-1.9605,4.4707-4.0152,6.68-5.9135,2.1619-1.858,4.38-3.6863,6.57-5.4747,2.1723-1.7738,4.7635-3.7595,6.57-5.2561a35.9645,35.9645,0,0,0,4.27-3.7229,4.931,4.931,0,0,0,.9858-2.8475,3.7245,3.7245,0,0,0-.9858-2.5185,5.786,5.786,0,0,0-2.7376-1.2043,9.1866,9.1866,0,0,0-3.0666,0,15.5441,15.5441,0,0,0-3.748.9627,12.7747,12.7747,0,0,0-3.04,1.994c-1.31,1.0987-3.1842,3.0959-4.8179,4.5988-2.2816,2.0991-5.8978,5.3461-8.87,7.9938-3.0111,2.6827-6.1284,5.4062-9.1981,8.1031-3.1162,2.7376-7.054,6.2963-9.4994,8.3222-1.653,1.3691-3.3992,3.1936-5.174,3.8327a7.3047,7.3047,0,0,1-5.4747,0c-1.7158-.84-3.316-3.2648-4.8184-5.0376-2.0254-2.39-4.9272-6.278-7.3364-9.3074-2.36-2.9672-4.9826-7.1173-7.1178-8.87"/><path class="a" d="M61.6492,46.2169a7.1333,7.1333,0,0,1,0-3.6136,6.8809,6.8809,0,0,1,2.3-2.8469,16.331,16.331,0,0,1,3.5038-1.6426c1.606-.6934,4.4168-1.8795,6.1321-2.5185a30.9136,30.9136,0,0,1,4.1611-1.3142,6.0291,6.0291,0,0,1,2.6278,0,2.2392,2.2392,0,0,1,1.2049,1.3142,2.9505,2.9505,0,0,1,0,1.8617A5.2544,5.2544,0,0,1,80.3739,39.1c-.8393.8942-2.5729,2.4636-3.8322,3.7229-1.3691,1.3691-3.1759,3.34-4.38,4.49a11.7836,11.7836,0,0,1-2.8469,2.4092,6.6952,6.6952,0,0,1-3.5043.4377,5.4922,5.4922,0,0,1-2.7376-1.4235,5.148,5.148,0,0,1-1.4235-2.5185"/><path class="b" d="M104.4425,65.6989v-11.55h6.8088v1.2251h-5.08v3.7066h4.2566v1.21h-4.2566v4.1831h5.4332v1.2251Z"/><path class="b" d="M112.14,65.6989,116.1825,59.9l-3.8445-5.7514H114.38l2.9309,4.3547,3.079-4.3547h1.63l-3.894,5.58,3.9926,5.97h-2.0417l-3.0953-4.5809-3.2025,4.5809Z"/><path class="b" d="M133.2907,65.1055a8.8312,8.8312,0,0,1-3.9354.882,5.8644,5.8644,0,0,1-4.3884-1.58,6.1293,6.1293,0,0,1-1.5474-4.4757,6.0913,6.0913,0,0,1,1.5765-4.4793,5.9722,5.9722,0,0,1,4.4415-1.5923,17.3839,17.3839,0,0,1,3.8363.5076v1.5372a13.5085,13.5085,0,0,0-3.8608-.8191,3.82,3.82,0,0,0-3.0713,1.2716,5.3666,5.3666,0,0,0-1.0862,3.59,4.982,4.982,0,0,0,1.1608,3.4844,4.0713,4.0713,0,0,0,3.1694,1.2757,8.21,8.21,0,0,0,3.7051-1.0066Z"/><path class="b" d="M135.7027,54.1491h1.7287v7.2886a3.8525,3.8525,0,0,0,.6792,2.5325,2.6991,2.6991,0,0,0,2.1612.7921,2.5058,2.5058,0,0,0,2.054-.7451,4.06,4.06,0,0,0,.6052-2.5249V54.1491h1.5147v7.32a6.73,6.73,0,0,1-.3131,2.3257,3.2711,3.2711,0,0,1-1.1276,1.4284,4.667,4.667,0,0,1-2.8486.7645,4.5137,4.5137,0,0,1-3.367-1.1159,4.78,4.78,0,0,1-1.0868-3.4492Z"/><path class="b" d="M147.4838,65.6989v-11.55h3.6882a4.2769,4.2769,0,0,1,2.6883.7334,2.5475,2.5475,0,0,1,.9341,2.1306,3.1688,3.1688,0,0,1-.646,1.9585,4.073,4.073,0,0,1-1.8155,1.3191L156.4,65.6989h-2.124L150.81,60.8136h-1.6138v4.8853Zm1.7123-6.11h.56q3.26,0,3.26-2.4273,0-1.7864-2.7332-1.7869h-1.0868Z"/><path class="b" d="M157.3958,65.48V63.8568a8.8785,8.8785,0,0,0,3.3838.9055,2.5186,2.5186,0,0,0,1.6424-.5071,1.6387,1.6387,0,0,0,.6215-1.3344,1.7161,1.7161,0,0,0-.4075-1.1552,5.3934,5.3934,0,0,0-1.5025-1.0612l-.84-.4606A7.8672,7.8672,0,0,1,158.1,58.6559a2.5885,2.5885,0,0,1-.6379-1.7364,2.7493,2.7493,0,0,1,1.0209-2.197,3.8922,3.8922,0,0,1,2.6015-.8626,10.8861,10.8861,0,0,1,2.9722.4448v1.4984a9.2737,9.2737,0,0,0-2.8731-.7175,2.3483,2.3483,0,0,0-1.482.4525,1.3862,1.3862,0,0,0-.5847,1.1394,1.4325,1.4325,0,0,0,.4285,1.0224,6.7948,6.7948,0,0,0,1.5642,1.0612l.8723.4683a7.5419,7.5419,0,0,1,2.2067,1.6077,2.7637,2.7637,0,0,1,.6256,1.8181,2.9148,2.9148,0,0,1-1.1731,2.4191,4.9226,4.9226,0,0,1-3.1081.9131A12.76,12.76,0,0,1,157.3958,65.48Z"/><path class="b" d="M167.2175,65.6989v-11.55h1.7287v11.55Z"/><path class="b" d="M176.99,65.9874a5.2977,5.2977,0,0,1-4.0794-1.6659,6.225,6.225,0,0,1-1.5433-4.4057,6.1694,6.1694,0,0,1,1.5515-4.4052,6.03,6.03,0,0,1,8.2865-.0036A6.1347,6.1347,0,0,1,182.7614,59.9a6.1979,6.1979,0,0,1-1.5561,4.444A5.5286,5.5286,0,0,1,176.99,65.9874Zm.025-1.2251a3.4894,3.4894,0,0,0,2.8895-1.2757,5.6361,5.6361,0,0,0,1.0209-3.6019,5.4775,5.4775,0,0,0-1.025-3.5273,3.799,3.799,0,0,0-5.6763.0041,5.5358,5.5358,0,0,0-1.0209,3.5468,5.6378,5.6378,0,0,0,1.0122,3.5585A3.3547,3.3547,0,0,0,177.0151,64.7623Z"/><path class="b" d="M185.1815,65.6989v-11.55h1.696l6.1334,8.92v-8.92h1.482v11.55h-1.6878l-6.1416-8.92v8.92Z"/><path class="b" d="M196.8886,65.48V63.8568a8.8785,8.8785,0,0,0,3.3838.9055,2.5186,2.5186,0,0,0,1.6424-.5071,1.6387,1.6387,0,0,0,.6215-1.3344,1.7161,1.7161,0,0,0-.4075-1.1552,5.3934,5.3934,0,0,0-1.5025-1.0612l-.84-.4606a7.8672,7.8672,0,0,1-2.1944-1.5877,2.5885,2.5885,0,0,1-.6379-1.7364,2.7493,2.7493,0,0,1,1.0209-2.197,3.8922,3.8922,0,0,1,2.6015-.8626,10.8861,10.8861,0,0,1,2.9722.4448v1.4984a9.2737,9.2737,0,0,0-2.8731-.7175,2.3483,2.3483,0,0,0-1.482.4525,1.3862,1.3862,0,0,0-.5847,1.1394,1.4325,1.4325,0,0,0,.4285,1.0224,6.7948,6.7948,0,0,0,1.5642,1.0612l.8723.4683a7.5419,7.5419,0,0,1,2.2067,1.6077,2.7637,2.7637,0,0,1,.6256,1.8181,2.9148,2.9148,0,0,1-1.1731,2.4191,4.9226,4.9226,0,0,1-3.1081.9131A12.76,12.76,0,0,1,196.8886,65.48Z"/><path class="b" d="M104.443,83.41V69.9248H109.28a5.9712,5.9712,0,0,1,3.4191.8278,2.6722,2.6722,0,0,1,1.1955,2.3323,2.7825,2.7825,0,0,1-.7277,1.909,3.8135,3.8135,0,0,1-1.8574,1.1378v.0373a3.6624,3.6624,0,0,1,2.2654,1.0627,2.9953,2.9953,0,0,1,.8477,2.1536,3.6224,3.6224,0,0,1-1.3063,2.9385,5.4126,5.4126,0,0,1-3.5677,1.0862Zm2.9929-11.247v3.1974h1.3155a2.173,2.173,0,0,0,1.46-.456,1.5666,1.5666,0,0,0,.5327-1.2558q0-1.4853-2.1868-1.4856Zm0,5.4542v3.5544h1.6214a2.4716,2.4716,0,0,0,1.626-.4887,1.6439,1.6439,0,0,0,.5883-1.3355,1.5341,1.5341,0,0,0-.5791-1.27,2.5363,2.5363,0,0,0-1.6168-.4606Z"/><path class="b" d="M128.2926,83.41h-3.2613l-.9453-3h-4.7254l-.9356,3h-3.2434l4.8368-13.4853h3.5488Zm-4.8919-5.3321-1.4269-4.5324a5.9843,5.9843,0,0,1-.2227-1.2134h-.0741a5.2208,5.2208,0,0,1-.2319,1.1756L120,78.078Z"/><path class="b" d="M141.0936,83.41h-3.4375L135.59,79.94q-.2321-.3945-.4448-.7053a3.8942,3.8942,0,0,0-.431-.5311,1.72,1.72,0,0,0-.454-.3386,1.1405,1.1405,0,0,0-.5143-.1175H132.94V83.41h-2.9927V69.9248h4.7438q4.8368,0,4.8368,3.6678a3.8362,3.8362,0,0,1-.2135,1.3023,3.6282,3.6282,0,0,1-.6021,1.077,3.8375,3.8375,0,0,1-.94.8273,4.8318,4.8318,0,0,1-1.2277.5454v.0378a1.892,1.892,0,0,1,.574.3054,4.1481,4.1481,0,0,1,.5378.4938,6.8314,6.8314,0,0,1,.4954.6067q.2367.324.431.6348ZM132.94,72.2V75.953h1.2972a2.1313,2.1313,0,0,0,1.5474-.5643,1.8973,1.8973,0,0,0,.5929-1.42q0-1.768-2.0846-1.768Z"/><path class="b" d="M151.6924,82.9306a8.6509,8.6509,0,0,1-3.799.7145,6.35,6.35,0,0,1-4.8087-1.8242,6.7259,6.7259,0,0,1-1.7512-4.8618,7.184,7.184,0,0,1,1.9687-5.2474,6.8332,6.8332,0,0,1,5.11-2.0126,9.4368,9.4368,0,0,1,3.28.4984v2.9247a5.7462,5.7462,0,0,0-3.0391-.8089,4,4,0,0,0-3.0207,1.1945,4.47,4.47,0,0,0-1.1491,3.2352,4.3859,4.3859,0,0,0,1.0842,3.1173,3.8,3.8,0,0,0,2.9186,1.1613,6.1579,6.1579,0,0,0,3.2061-.8651Z"/><path class="b" d="M161.9773,83.41h-7.9683V69.9248h7.6624v2.4733h-4.67v3h4.3455V77.862h-4.3455v3.0846h4.9757Z"/><path class="b" d="M172.0164,83.41h-7.9127V69.9248h2.9927V80.9466h4.92Z"/><path class="b" d="M178.9705,83.6451a6.1377,6.1377,0,0,1-4.6514-1.8855,6.8268,6.8268,0,0,1-1.7971-4.9134,7.3184,7.3184,0,0,1,1.8252-5.1723,6.273,6.273,0,0,1,4.8368-1.9748,5.9857,5.9857,0,0,1,4.6,1.8906,7.03,7.03,0,0,1,1.7558,4.9838,7.1991,7.1991,0,0,1-1.8206,5.1253A6.2035,6.2035,0,0,1,178.9705,83.6451Zm.13-11.3317a2.9956,2.9956,0,0,0-2.5014,1.1991,5.0513,5.0513,0,0,0-.9269,3.1739,4.9573,4.9573,0,0,0,.9269,3.1694,3.1672,3.1672,0,0,0,4.8827.0327,4.904,4.904,0,0,0,.908-3.1453,5.3167,5.3167,0,0,0-.88-3.2633A2.8563,2.8563,0,0,0,179.1,72.3133Z"/><path class="b" d="M199.6979,83.41h-3.02l-5.4761-8.4729a12.1165,12.1165,0,0,1-.667-1.1189h-.0373q.0743.7147.0741,2.1817v7.41h-2.8257V69.9248h3.224l5.2724,8.21q.3616.5546.667,1.1h.0373a14.6058,14.6058,0,0,1-.0741-1.8523V69.9248h2.8257Z"/><path class="b" d="M214.4212,83.41H211.16l-.9453-3h-4.7254l-.9356,3H201.31l4.8368-13.4853h3.5488Zm-4.8919-5.3321-1.4269-4.5324a5.9843,5.9843,0,0,1-.2227-1.2134h-.0741a5.2208,5.2208,0,0,1-.2319,1.1756l-1.4453,4.57Z"/></svg>