<svg id="Capa_1" data-name="Capa 1" xmlns="http://www.w3.org/2000/svg" viewBox="0 0 163.94 111.17"><defs><style>.cls-1,.cls-4{fill:#2a2b2a;}.cls-1,.cls-2{fill-rule:evenodd;}.cls-2{fill:#f56214;}.cls-3{fill:none;}</style></defs><title>Mesa de trabajo 24</title><path class="cls-1" d="M134.92,39.27h-3.51A52.39,52.39,0,0,0,37.6,27.41l-2.2-2.73a55.73,55.73,0,0,1,99.52,14.59m-108,26.41A56,56,0,0,1,26,55.59a55.3,55.3,0,0,1,1.7-13.65l2.82,2.62a52.79,52.79,0,0,0-.6,18.79Zm6.51,10.17a52.38,52.38,0,0,0,99.47-9.44h3.41A55.72,55.72,0,0,1,30.84,78.29Z"/><path class="cls-2" d="M33,26.79a5.5,5.5,0,0,0-4.35-1.26A7.4,7.4,0,0,0,24,29.05a6.41,6.41,0,0,0-.16,4.18,13.06,13.06,0,0,0,2.84,3.68C28,38.31,30.23,40,31.87,41.6a35.6,35.6,0,0,1,4.69,5,13.51,13.51,0,0,1,1.84,5,14.64,14.64,0,0,1,0,5.52,10.14,10.14,0,0,1-2.34,4.44,87.42,87.42,0,0,1-7.45,6.28c-3.73,3-10.95,8.5-14.9,11.8-3,2.53-6.82,6.12-8.79,7.95a40.55,40.55,0,0,0-3,3A7.44,7.44,0,0,0,.82,92.56,11.15,11.15,0,0,0,.15,95a10.28,10.28,0,0,0,0,2.6,6.25,6.25,0,0,0,.67,1.84,5.51,5.51,0,0,0,1.09,1.5,4.38,4.38,0,0,0,1.57.86,7.57,7.57,0,0,0,2.45.47,8.63,8.63,0,0,0,3.26-.66,8.33,8.33,0,0,0,2.51-2.17,16.37,16.37,0,0,0,1.43-2.6c.53-1,1.12-2.15,1.75-3.18.78-1.27,2-3.08,2.93-4.43s1.73-2.5,2.68-3.69S22.7,83,23.84,81.68c1.35-1.5,3.12-3.51,4.77-5.18s3.69-3.67,5.44-5.19,3.54-2.81,5-3.94c1.27-1,2.73-2.09,3.85-2.84a22.12,22.12,0,0,1,2.84-1.67,4.74,4.74,0,0,1,1.93-.51,7.24,7.24,0,0,1,2.34.51,8.3,8.3,0,0,1,1.84,1.08c.81.57,2,1.55,3,2.33s2.19,1.72,3.26,2.61c1.24,1,3,2.62,4.18,3.6.91.77,1.85,1.49,2.77,2.26s2,1.72,2.92,2.51,2,1.56,2.79,2.22,1.62,1.29,2.24,1.71A14,14,0,0,0,74.5,82a15.85,15.85,0,0,0,1.7.85,6.3,6.3,0,0,0,1.8.47,6.61,6.61,0,0,0,2.58-.15,4.51,4.51,0,0,0,1.76-1.51,5.54,5.54,0,0,0,1-2,6.79,6.79,0,0,0,.15-2.43,4.74,4.74,0,0,0-1.15-2.51,44.7,44.7,0,0,0-4.52-3.43c-1.55-1.15-3.3-2.3-4.77-3.43S70.3,65.65,69,64.53c-1.54-1.27-3.76-3-5.11-4.27a14.68,14.68,0,0,1-3-3.1,11.43,11.43,0,0,1-1.09-3.93,8.94,8.94,0,0,1,0-3,5.76,5.76,0,0,1,1.09-2.43,41,41,0,0,1,3.85-3.85c1.82-1.67,5.07-4.41,7.11-6.19,1.71-1.5,3.42-3.07,5.11-4.52s3.34-2.82,5-4.18,3.64-2.88,5-4a27.17,27.17,0,0,0,3.26-2.85A3.76,3.76,0,0,0,91,20a2.84,2.84,0,0,0-.76-1.93,4.5,4.5,0,0,0-2.09-.92,7.07,7.07,0,0,0-2.34,0,11.67,11.67,0,0,0-2.87.74,9.88,9.88,0,0,0-2.32,1.52c-1,.84-2.44,2.37-3.68,3.52-1.75,1.6-4.51,4.08-6.78,6.11s-4.69,4.13-7,6.19-5.39,4.81-7.26,6.36c-1.27,1-2.6,2.44-4,2.93a5.59,5.59,0,0,1-4.18,0c-1.31-.64-2.54-2.5-3.68-3.85-1.55-1.83-3.77-4.8-5.61-7.12S34.59,28.12,33,26.79"/><path class="cls-2" d="M47.19,35.32a5.38,5.38,0,0,1,0-2.76,5.31,5.31,0,0,1,1.75-2.18,12.67,12.67,0,0,1,2.68-1.25c1.23-.53,3.38-1.44,4.69-1.93a24.77,24.77,0,0,1,3.18-1,4.53,4.53,0,0,1,2,0,1.74,1.74,0,0,1,.92,1,2.33,2.33,0,0,1,0,1.43,4.29,4.29,0,0,1-.92,1.25c-.64.69-2,1.88-2.93,2.85s-2.43,2.55-3.35,3.43A9.12,9.12,0,0,1,53,38a5.06,5.06,0,0,1-2.67.33,4.19,4.19,0,0,1-2.1-1.08,3.91,3.91,0,0,1-1.08-1.93"/><rect class="cls-3" width="163.93" height="111.17"/><path class="cls-4" d="M79.89,50.21V41.38H85.1v.94H81.21v2.83h3.26v.93H81.21v3.19h4.16v.94Z"/><path class="cls-4" d="M85.77,50.21l3.09-4.43-2.93-4.4h1.56l2.24,3.33,2.35-3.33h1.24l-3,4.27,3.05,4.56H91.84l-2.37-3.5L87,50.21Z"/><path class="cls-4" d="M101.94,49.76a6.74,6.74,0,0,1-3,.67,4.45,4.45,0,0,1-3.35-1.21,4.66,4.66,0,0,1-1.19-3.42,4.66,4.66,0,0,1,1.21-3.42A4.55,4.55,0,0,1,99,41.16a13.23,13.23,0,0,1,2.94.39v1.18a10.32,10.32,0,0,0-3-.63,2.9,2.9,0,0,0-2.35,1,4.07,4.07,0,0,0-.83,2.75,3.77,3.77,0,0,0,.89,2.66,3.09,3.09,0,0,0,2.42,1,6.19,6.19,0,0,0,2.83-.77Z"/><path class="cls-4" d="M103.78,41.38h1.32V47a3,3,0,0,0,.52,1.94,2.08,2.08,0,0,0,1.65.6,1.9,1.9,0,0,0,1.57-.56,3.1,3.1,0,0,0,.47-1.93V41.38h1.15V47a5.18,5.18,0,0,1-.24,1.78,2.44,2.44,0,0,1-.86,1.09,3.54,3.54,0,0,1-2.17.58,3.46,3.46,0,0,1-2.58-.85,3.68,3.68,0,0,1-.83-2.64Z"/><path class="cls-4" d="M112.79,50.21V41.38h2.81a3.3,3.3,0,0,1,2.06.56,2,2,0,0,1,.71,1.63,2.43,2.43,0,0,1-.49,1.5,3.12,3.12,0,0,1-1.39,1l3.11,4.13H118l-2.65-3.73h-1.24v3.73Zm1.3-4.67h.43c1.66,0,2.49-.62,2.49-1.85,0-.91-.69-1.37-2.08-1.37h-.84Z"/><path class="cls-4" d="M120.36,50V48.8a6.8,6.8,0,0,0,2.59.69,1.89,1.89,0,0,0,1.25-.38,1.25,1.25,0,0,0,.48-1,1.38,1.38,0,0,0-.31-.89,4.23,4.23,0,0,0-1.15-.81l-.64-.35a5.86,5.86,0,0,1-1.68-1.21,2,2,0,0,1-.49-1.33,2.1,2.1,0,0,1,.78-1.68,3,3,0,0,1,2-.66,8.56,8.56,0,0,1,2.27.34v1.15a7,7,0,0,0-2.19-.55,1.76,1.76,0,0,0-1.14.35,1.07,1.07,0,0,0-.44.87,1.13,1.13,0,0,0,.32.78,5.72,5.72,0,0,0,1.2.81l.67.36a5.67,5.67,0,0,1,1.68,1.23,2.07,2.07,0,0,1,.48,1.38,2.22,2.22,0,0,1-.9,1.85,3.71,3.71,0,0,1-2.37.7A9.66,9.66,0,0,1,120.36,50Z"/><path class="cls-4" d="M127.87,50.21V41.38h1.32v8.83Z"/><path class="cls-4" d="M135.34,50.43a4,4,0,0,1-3.12-1.27A4.74,4.74,0,0,1,131,45.79a4.74,4.74,0,0,1,1.18-3.37,4.62,4.62,0,0,1,6.34,0,4.71,4.71,0,0,1,1.19,3.36,4.76,4.76,0,0,1-1.19,3.4A4.25,4.25,0,0,1,135.34,50.43Zm0-.94a2.65,2.65,0,0,0,2.2-1,4.31,4.31,0,0,0,.78-2.75,4.21,4.21,0,0,0-.78-2.7,2.91,2.91,0,0,0-4.34,0,4.25,4.25,0,0,0-.78,2.72,4.26,4.26,0,0,0,.78,2.71A2.52,2.52,0,0,0,135.36,49.49Z"/><path class="cls-4" d="M141.6,50.21V41.38h1.29l4.69,6.82V41.38h1.13v8.83h-1.29l-4.69-6.82v6.82Z"/><path class="cls-4" d="M150.54,50V48.8a6.8,6.8,0,0,0,2.59.69,1.93,1.93,0,0,0,1.26-.38,1.27,1.27,0,0,0,.47-1,1.32,1.32,0,0,0-.31-.89,4.23,4.23,0,0,0-1.15-.81l-.64-.35a6.17,6.17,0,0,1-1.68-1.21,2,2,0,0,1-.49-1.33,2.1,2.1,0,0,1,.78-1.68,3,3,0,0,1,2-.66,8.51,8.51,0,0,1,2.27.34v1.15a7,7,0,0,0-2.19-.55,1.72,1.72,0,0,0-1.13.35,1.05,1.05,0,0,0-.45.87,1.1,1.1,0,0,0,.33.78,5.33,5.33,0,0,0,1.19.81l.67.36a5.54,5.54,0,0,1,1.68,1.23,2.07,2.07,0,0,1,.48,1.38,2.23,2.23,0,0,1-.89,1.85,3.74,3.74,0,0,1-2.38.7A9.8,9.8,0,0,1,150.54,50Z"/><path class="cls-4" d="M79.89,63.75V53.44h3.7a4.57,4.57,0,0,1,2.61.63,2,2,0,0,1,.91,1.79,2.1,2.1,0,0,1-.55,1.45,2.89,2.89,0,0,1-1.42.87v0a2.79,2.79,0,0,1,1.73.81,2.32,2.32,0,0,1,.65,1.65,2.78,2.78,0,0,1-1,2.25,4.16,4.16,0,0,1-2.73.83Zm2.29-8.6v2.44h1a1.67,1.67,0,0,0,1.12-.34,1.22,1.22,0,0,0,.41-1c0-.76-.56-1.14-1.67-1.14Zm0,4.17V62h1.24a1.87,1.87,0,0,0,1.24-.38,1.26,1.26,0,0,0,.45-1,1.19,1.19,0,0,0-.44-1,2,2,0,0,0-1.24-.35Z"/><path class="cls-4" d="M98.12,63.75H95.63l-.73-2.3H91.29l-.71,2.3H88.1l3.7-10.31h2.71Zm-3.74-4.08-1.09-3.46a4.43,4.43,0,0,1-.17-.93h-.06a4.08,4.08,0,0,1-.17.9l-1.11,3.49Z"/><path class="cls-4" d="M107.9,63.75h-2.62l-1.58-2.66c-.12-.2-.24-.38-.34-.53a2.94,2.94,0,0,0-.33-.41,1.38,1.38,0,0,0-.35-.26.86.86,0,0,0-.39-.09h-.62v4H99.38V53.44H103c2.46,0,3.7.93,3.7,2.8a3,3,0,0,1-.17,1,2.75,2.75,0,0,1-.46.82,2.72,2.72,0,0,1-.72.63,3.57,3.57,0,0,1-.93.42v0a1.63,1.63,0,0,1,.43.23,3.7,3.7,0,0,1,.42.38,5.72,5.72,0,0,1,.37.46c.12.17.23.33.33.49Zm-6.23-8.57v2.87h1a1.64,1.64,0,0,0,1.18-.43,1.45,1.45,0,0,0,.46-1.09c0-.9-.53-1.35-1.6-1.35Z"/><path class="cls-4" d="M116,63.38a6.66,6.66,0,0,1-2.9.55,4.88,4.88,0,0,1-3.68-1.4,5.14,5.14,0,0,1-1.33-3.71,5.49,5.49,0,0,1,1.5-4,5.21,5.21,0,0,1,3.91-1.54,7.27,7.27,0,0,1,2.5.38v2.23a4.39,4.39,0,0,0-2.32-.61,3.07,3.07,0,0,0-2.31.91,3.44,3.44,0,0,0-.88,2.47,3.35,3.35,0,0,0,.83,2.38,2.88,2.88,0,0,0,2.23.89,4.71,4.71,0,0,0,2.45-.66Z"/><path class="cls-4" d="M123.86,63.75h-6.09V53.44h5.86v1.89h-3.57v2.29h3.32v1.89h-3.32v2.35h3.8Z"/><path class="cls-4" d="M131.54,63.75h-6V53.44h2.28v8.42h3.77Z"/><path class="cls-4" d="M136.85,63.93a4.72,4.72,0,0,1-3.56-1.44,5.27,5.27,0,0,1-1.37-3.76,5.58,5.58,0,0,1,1.4-3.95A4.77,4.77,0,0,1,137,53.27a4.6,4.6,0,0,1,3.52,1.44,5.42,5.42,0,0,1,1.34,3.81,5.5,5.5,0,0,1-1.39,3.92A4.76,4.76,0,0,1,136.85,63.93Zm.1-8.66a2.28,2.28,0,0,0-1.91.91,3.88,3.88,0,0,0-.71,2.43A3.79,3.79,0,0,0,135,61a2.26,2.26,0,0,0,1.85.89,2.29,2.29,0,0,0,1.88-.86,3.78,3.78,0,0,0,.69-2.41,4,4,0,0,0-.67-2.49A2.16,2.16,0,0,0,137,55.27Z"/><path class="cls-4" d="M152.69,63.75h-2.31l-4.18-6.48a8,8,0,0,1-.51-.85h0c0,.36.06.92.06,1.66v5.67h-2.16V53.44H146l4,6.27c.18.29.35.57.51.85h0a10.69,10.69,0,0,1-.06-1.42v-5.7h2.16Z"/><path class="cls-4" d="M163.94,63.75h-2.49l-.72-2.3h-3.61l-.72,2.3h-2.48l3.7-10.31h2.71Zm-3.74-4.08-1.09-3.46a5.18,5.18,0,0,1-.17-.93h-.05a4.78,4.78,0,0,1-.18.9l-1.1,3.49Z"/><rect class="cls-3" width="163.93" height="111.17"/></svg>