<svg id="Capa_2" data-name="Capa 2" xmlns="http://www.w3.org/2000/svg" viewBox="0 0 108.33 96.22"><defs><style>.cls-1{fill:#3fad85;}.cls-2{fill:#40a87d;}.cls-3{fill:#f9fbfa;}.cls-4{fill:#fafcfb;}.cls-5{fill:#f8fbf9;}.cls-6{fill:#42ae86;}.cls-7{fill:#00ab80;}.cls-8{fill:#00101e;}.cls-9{fill:#fdc500;}.cls-10{fill:#fff;}.cls-11{fill:#ec644a;}.cls-12{fill:#a9d6c1;}.cls-13{fill:#1e1f1f;}</style></defs><title>Mesa de trabajo 3</title><path class="cls-1" d="M108.33,53.49a1.11,1.11,0,0,0-.09.31,51.64,51.64,0,0,1-7.51,25.94c-.13.21-.24.36-.53.36-3.92,0-7.84,0-11.76,0l-.38,0c.19-.23.33-.42.48-.61a41.9,41.9,0,0,0,9-19.71,40.71,40.71,0,0,0,.22-12.27,41.34,41.34,0,0,0-8.71-20.57A43.56,43.56,0,0,0,68.26,12.39a42.81,42.81,0,0,0-11.8-2.21A43.93,43.93,0,0,0,26.83,19.4,41.94,41.94,0,0,0,11.38,42.78a38.86,38.86,0,0,0-1.2,8.37,41.65,41.65,0,0,0,9.71,28.53l.31.41h-.9c-3.7,0-7.41,0-11.11,0a.69.69,0,0,1-.69-.38A52.53,52.53,0,0,1,.73,61.53,51.75,51.75,0,0,1,5.17,30.32,52.65,52.65,0,0,1,15.3,16.06,54.6,54.6,0,0,1,48.91.24,55.13,55.13,0,0,1,61.29.47,53.78,53.78,0,0,1,90.65,13.9,52,52,0,0,1,106.8,40.67a48.83,48.83,0,0,1,1.38,9.63c0,.55,0,1.1.06,1.66a1.71,1.71,0,0,0,.09.3Zm-8-10.92a6.34,6.34,0,0,0,.61.35,8.88,8.88,0,0,0,1.57.63,1.39,1.39,0,0,0,1.73-1.76,3.31,3.31,0,0,0-.31-.81c-.4-.71-.57-.75-1.23-.35a5.75,5.75,0,0,1,.65,1,.69.69,0,0,1-.81,1,2.38,2.38,0,0,1-.78-.25,13.68,13.68,0,0,1-1.61-1,.93.93,0,0,0-1.1,0l.76,3.18.8-.21-.36-1.64ZM67.74,10l1.12-2.86c.15.82.28,1.53.4,2.25a.56.56,0,0,0,.38.46.61.61,0,0,0,.73-.17c.49-.49,1-1,1.53-1.42l.07.06-.83,2.82.87.31,1.22-4.37c-.76-.41-.76-.41-1.34.13L70,9c-.17-.95-.31-1.8-.47-2.66-.12-.67-.23-.76-1-.82L66.87,9.72ZM93.06,21.09a1.74,1.74,0,0,0-2.12-1.66,3.7,3.7,0,0,0-2.39,2.08,1.71,1.71,0,0,0,2.13,2.31,3.83,3.83,0,0,0,2.21-2.06A4.37,4.37,0,0,0,93.06,21.09ZM5.26,52.35A12.45,12.45,0,0,0,6.67,52a1.54,1.54,0,0,0,1.07-1.41A1.56,1.56,0,0,0,6.91,49a3.62,3.62,0,0,0-3.24-.13,1.56,1.56,0,0,0-1,1.48,1.49,1.49,0,0,0,.89,1.53A13.06,13.06,0,0,0,5.26,52.35ZM36.52,11.17,34.69,7l-.88.39.72,1.67L32.46,10,31.71,8.3l-.88.38,1.84,4.18.87-.4-.77-1.8,2.07-.9.8,1.79ZM102.26,48.5a4.1,4.1,0,0,0,2.19-.71,1.6,1.6,0,0,0,.63-1.66,1.5,1.5,0,0,0-1-1.27,3.61,3.61,0,0,0-3.29.47,1.68,1.68,0,0,0,.35,2.9A7.38,7.38,0,0,0,102.26,48.5ZM14.05,22.35A1.69,1.69,0,0,0,12.62,25a3.85,3.85,0,0,0,2.18,1.72,1.61,1.61,0,0,0,1.76-.4A1.64,1.64,0,0,0,17,24.51,3.73,3.73,0,0,0,14.05,22.35ZM72.8,11.84l2.93,1.36.33-.7-2.08-1,.5-1,1.76.8.33-.69L74.8,9.77l.46-1,2,.92.32-.7L74.73,7.69ZM98.63,28.25c-.27-.35-.44-.83-.75-.95a4.36,4.36,0,0,0-3.12-.07,1.68,1.68,0,0,0-1.29,1.44,2,2,0,0,0,1,1.88,1.54,1.54,0,0,0,2-.23,1.49,1.49,0,0,0,.14-1.89c-.13-.19-.29-.36-.44-.54l0-.1ZM66.35,9.52c-.28-1.54-.56-3-.84-4.57-.09-.46-.51-.28-.78-.38a.47.47,0,0,0-.41.17c-.71,1-1.4,2-2.09,3l-.53.79c.88.28.9.29,1.32-.42a.59.59,0,0,1,.81-.32,5.52,5.52,0,0,0,1,.21c.27,0,.38.17.42.45.1.93.12.93,1,1.08C66.26,9.55,66.28,9.54,66.35,9.52Zm-24.7,0c-1-1.22-2-2.42-3-3.6-.27-.33-.56,0-.83.07a.49.49,0,0,0-.29.35c-.14,1.42-.25,2.84-.37,4.26,0,.11,0,.22,0,.34.86-.13.87-.14.93-.92a2.47,2.47,0,0,1,0-.39c0-.1.1-.23.18-.25.54-.19,1.1-.36,1.63-.52C40.78,9.85,40.78,9.85,41.65,9.47ZM19.57,19.34c.19-.21.32-.38.48-.54a2.87,2.87,0,0,1,.53-.45.8.8,0,0,1,1.07.07.79.79,0,0,1,0,1.11,3.85,3.85,0,0,1-.75.58,3.51,3.51,0,0,1-.55.26,3.08,3.08,0,0,0,.34.45.38.38,0,0,0,.33.09,3,3,0,0,0,1.7-1.54,1.53,1.53,0,0,0-.45-1.78,1.42,1.42,0,0,0-1.74-.13,8.93,8.93,0,0,0-.83.62l-.58-.72,1.38-1.27-.54-.6-2,1.83ZM4.42,40.09a1.13,1.13,0,0,0,.17,1.51,18.68,18.68,0,0,1,1.59,1.85A1.36,1.36,0,0,0,7.29,44l.53-2.16,1,.23.19-.88-1-.26.08-.6-.69-.17-.2.58ZM7.73,56.25,7.56,53l-.79.07v1.79l-.13.09a2.64,2.64,0,0,0-.3-.42,4.15,4.15,0,0,0-1.87-1.15A1.3,1.3,0,0,0,2.75,54.5a3.17,3.17,0,0,0,.19,1.36c.23.67.49.73,1.13.37-.09-.11-.19-.22-.27-.34a1.15,1.15,0,0,1-.09-1.37A1,1,0,0,1,5,54.6,17.17,17.17,0,0,1,6.66,56,.88.88,0,0,0,7.73,56.25ZM10.42,28.6a5.38,5.38,0,0,1,.08-.9c.09-.34.25-.67.67-.72a.88.88,0,0,1,.84.52,1.19,1.19,0,0,1,.17.36,19.12,19.12,0,0,1,.5,2,1,1,0,0,0,.74.88L15.16,28l-.7-.44-1,1.54c-.22-.67-.39-1.32-.64-1.93A1.61,1.61,0,0,0,11.26,26c-.8.05-1.18.66-1.45,1.34a1.17,1.17,0,0,0-.06.2C9.55,28.3,9.63,28.42,10.42,28.6Zm77.41-7.67c-.25-.22-.46-.42-.67-.62l-.68-.63c.64-.07,1.23-.11,1.81-.22A1.84,1.84,0,0,0,90,18.06a1.94,1.94,0,0,0-1.31-1.78c-.7-.31-.9-.22-1.12.41a6.78,6.78,0,0,1,1.15.55.64.64,0,0,1-.06,1.1,1.38,1.38,0,0,1-.6.25,19.62,19.62,0,0,1-2.17.17,1,1,0,0,0-1,.58l2.41,2.21ZM60,6.6l1.8.21.09-.74L60,5.81l.19-1.17,2.06.25.11-.76-3-.4-.59,4.53.94.11Zm44.57,49.28-3.86-2a3.12,3.12,0,0,1,0,.51c-.1.4.09.58.44.75,1.1.54,2.17,1.12,3.27,1.66a4.79,4.79,0,0,0,1,.23l.17-3.44h-.87ZM50.76,6.72a1.39,1.39,0,0,0,1.48,1.43,1.83,1.83,0,0,0,1.88-1.83A1.38,1.38,0,0,0,52.6,4.89,1.83,1.83,0,0,0,50.76,6.72ZM43,8.41l-.81-3.69-.94.21,1,4.45,3.05-.66L45.11,8Zm2.37-4.3L46,8.64l3.08-.42L49,7.47l-2.12.27L46.35,4ZM54.8,5.63l.52.09L54.78,8l.86,0,.58-2.33H57l.16-.67-.78,0c.12-.94.4-1.15,1.32-1l.22-.7a5.77,5.77,0,0,0-1.05-.11c-.78.08-1.12.64-1.31,1.33-.05.15-.18.39-.25.38C54.8,4.9,54.89,5.31,54.8,5.63ZM4.16,46.05,8,46.58l.13-1L3.37,45c-.32.92.19,1.66.32,2.49l.82,0ZM95.89,24.19c-.45-.86-1.32-1-2-1.52l-.54.62,1.21.7-3.07,2.36.58.76ZM16.33,19c-.75.61-.8,1.49-1.15,2.24l.7.43.49-1.31,2.85,2.62.65-.7ZM104.45,50.6l-3.86.2.06,1,4.78-.23c.15-1-.48-1.61-.77-2.4l-.8.21ZM26.94,15.06a.89.89,0,0,0,.82-.87.83.83,0,0,0-.82-.75.88.88,0,0,0-.82.87A.81.81,0,0,0,26.94,15.06ZM99.51,35.55a.83.83,0,0,0-.8-.86.79.79,0,0,0-.78.78.86.86,0,0,0,.81.86A.77.77,0,0,0,99.51,35.55ZM82.1,14.63a.85.85,0,0,0-.84-.82.77.77,0,0,0-.76.79.82.82,0,0,0,.84.81A.76.76,0,0,0,82.1,14.63ZM8.69,35.08a.75.75,0,0,0,.78.76.84.84,0,0,0,.8-.86.77.77,0,0,0-.8-.75A.79.79,0,0,0,8.69,35.08Z"/><path class="cls-2" d="M85.72,80.09c.89-1.14,1.76-2.17,2.55-3.27a39,39,0,0,0,7.2-17.55,39.53,39.53,0,0,0-9.63-32.68,41,41,0,0,0-21.4-13,38.77,38.77,0,0,0-8.37-1.2A41.55,41.55,0,0,0,25.21,23.82,39.82,39.82,0,0,0,13.28,45a38.46,38.46,0,0,0-.79,10.43A40.09,40.09,0,0,0,22,79.27l.66.77A1.51,1.51,0,0,1,21,79.5a41.71,41.71,0,0,1-8.69-18.22,41.33,41.33,0,0,1,8.13-33.59,42,42,0,0,1,24.7-15.31,41.08,41.08,0,0,1,10.72-.92,42.43,42.43,0,0,1,25.86,9.89A41.16,41.16,0,0,1,95.23,41.84a40,40,0,0,1,1.57,9.67A41,41,0,0,1,87,79.85a.84.84,0,0,1-.46.23A5.77,5.77,0,0,1,85.72,80.09Z"/><path class="cls-3" d="M67.74,10l-.87-.32,1.69-4.17c.74.06.85.15,1,.82.16.86.3,1.71.47,2.66l1.89-1.78c.58-.54.58-.54,1.34-.13L72,11.49l-.87-.31L72,8.36,71.9,8.3c-.51.47-1,.93-1.53,1.42a.61.61,0,0,1-.73.17.56.56,0,0,1-.38-.46c-.12-.72-.25-1.43-.4-2.25Z"/><path class="cls-4" d="M93.06,21.09a4.37,4.37,0,0,1-.17.67,3.83,3.83,0,0,1-2.21,2.06,1.71,1.71,0,0,1-2.13-2.31,3.7,3.7,0,0,1,2.39-2.08A1.74,1.74,0,0,1,93.06,21.09ZM90,23a3.24,3.24,0,0,0,2.17-2,.63.63,0,0,0-.84-.64,3.34,3.34,0,0,0-1.92,1.73A.62.62,0,0,0,90,23Z"/><path class="cls-3" d="M5.26,52.35a13.06,13.06,0,0,1-1.67-.5,1.49,1.49,0,0,1-.89-1.53,1.56,1.56,0,0,1,1-1.48A3.62,3.62,0,0,1,6.91,49a1.56,1.56,0,0,1,.83,1.65A1.54,1.54,0,0,1,6.67,52,12.45,12.45,0,0,1,5.26,52.35Zm.06-1.08c.4-.06.73-.08,1-.16a.64.64,0,0,0,.53-.62.63.63,0,0,0-.45-.67,3.76,3.76,0,0,0-2.39-.1.64.64,0,0,0-.52.62A.62.62,0,0,0,4,51C4.46,51.12,4.92,51.19,5.32,51.27Z"/><path class="cls-3" d="M36.52,11.17l-.88.38-.8-1.79-2.07.9.77,1.8-.87.4L30.83,8.68l.88-.38L32.46,10l2.07-.91-.72-1.67L34.69,7Z"/><path class="cls-4" d="M102.26,48.5a7.38,7.38,0,0,1-1.17-.27,1.68,1.68,0,0,1-.35-2.9,3.61,3.61,0,0,1,3.29-.47,1.5,1.5,0,0,1,1,1.27,1.6,1.6,0,0,1-.63,1.66A4.1,4.1,0,0,1,102.26,48.5Zm.83-2.89a14.47,14.47,0,0,0-1.74.5.93.93,0,0,0-.41.68.55.55,0,0,0,.6.57,9.85,9.85,0,0,0,1.8-.13c.7-.14,1-.5.93-.91S103.83,45.7,103.09,45.61Z"/><path class="cls-4" d="M14.05,22.35A3.73,3.73,0,0,1,17,24.51a1.64,1.64,0,0,1-.44,1.76,1.61,1.61,0,0,1-1.76.4A3.85,3.85,0,0,1,12.62,25,1.69,1.69,0,0,1,14.05,22.35Zm-.09.94a.61.61,0,0,0-.64.89,3.26,3.26,0,0,0,2.1,1.63.62.62,0,0,0,.72-.87A3.51,3.51,0,0,0,14,23.29Z"/><path class="cls-3" d="M72.8,11.84l1.93-4.15L77.58,9l-.32.7-2-.92-.46,1,1.77.83-.33.69-1.76-.8-.5,1,2.08,1-.33.7Z"/><path class="cls-3" d="M98.63,28.25l-2.46-.46,0,.1c.15.18.31.35.44.54a1.49,1.49,0,0,1-.14,1.89,1.54,1.54,0,0,1-2,.23,2,2,0,0,1-1-1.88,1.68,1.68,0,0,1,1.29-1.44,4.36,4.36,0,0,1,3.12.07C98.19,27.42,98.36,27.9,98.63,28.25ZM96,29.09a.92.92,0,0,0-.84-.89.81.81,0,0,0-.83.78.85.85,0,0,0,.8.9A.84.84,0,0,0,96,29.09Z"/><path class="cls-5" d="M66.35,9.52c-.07,0-.09,0-.1,0-.9-.15-.92-.15-1-1.08,0-.28-.15-.41-.42-.45a5.52,5.52,0,0,1-1-.21.59.59,0,0,0-.81.32c-.42.71-.44.7-1.32.42l.53-.79c.69-1,1.38-2,2.09-3a.47.47,0,0,1,.41-.17c.27.1.69-.08.78.38C65.79,6.47,66.07,8,66.35,9.52Zm-1.59-4.1L63.71,7.05l1.34.27Z"/><path class="cls-3" d="M41.65,9.47c-.87.38-.87.38-1.75-.66-.53.16-1.09.33-1.63.52-.08,0-.15.15-.18.25a2.47,2.47,0,0,0,0,.39c-.06.78-.07.79-.93.92,0-.12,0-.23,0-.34.12-1.42.23-2.84.37-4.26a.49.49,0,0,1,.29-.35c.27-.05.56-.4.83-.07C39.63,7.05,40.63,8.25,41.65,9.47ZM38.23,6.66l-.11,1.95,1.31-.42Z"/><path class="cls-3" d="M19.57,19.34l-1.68-2,2-1.83.54.6-1.38,1.27.58.72a8.93,8.93,0,0,1,.83-.62,1.42,1.42,0,0,1,1.74.13,1.53,1.53,0,0,1,.45,1.78A3,3,0,0,1,21,20.91a.38.38,0,0,1-.33-.09,3.08,3.08,0,0,1-.34-.45,3.51,3.51,0,0,0,.55-.26,3.85,3.85,0,0,0,.75-.58.79.79,0,0,0,0-1.11.8.8,0,0,0-1.07-.07,2.87,2.87,0,0,0-.53.45C19.89,19,19.76,19.13,19.57,19.34Z"/><path class="cls-3" d="M4.42,40.09l2.83.66.2-.58.69.17-.08.6,1,.26-.19.88-1-.23L7.29,44a1.36,1.36,0,0,1-1.11-.56A18.68,18.68,0,0,0,4.59,41.6,1.13,1.13,0,0,1,4.42,40.09Zm2.65,1.57-1.78-.42L6.76,43Z"/><path class="cls-3" d="M100.25,42.67l.36,1.64-.8.21-.76-3.18a.93.93,0,0,1,1.1,0,13.68,13.68,0,0,0,1.61,1,2.38,2.38,0,0,0,.78.25.69.69,0,0,0,.81-1,5.75,5.75,0,0,0-.65-1c.66-.4.83-.36,1.23.35a3.31,3.31,0,0,1,.31.81,1.39,1.39,0,0,1-1.73,1.76,8.88,8.88,0,0,1-1.57-.63,6.34,6.34,0,0,1-.61-.35l-.12,0Z"/><path class="cls-5" d="M7.73,56.25A.88.88,0,0,1,6.66,56,17.17,17.17,0,0,0,5,54.6a1,1,0,0,0-1.29-.08,1.15,1.15,0,0,0,.09,1.37c.08.12.18.23.27.34-.64.36-.9.3-1.13-.37a3.17,3.17,0,0,1-.19-1.36,1.3,1.3,0,0,1,1.72-1.13,4.15,4.15,0,0,1,1.87,1.15,2.64,2.64,0,0,1,.3.42l.13-.09V53.06L7.56,53Z"/><path class="cls-3" d="M10.42,28.6c-.79-.18-.87-.3-.67-1.1a1.17,1.17,0,0,1,.06-.2c.27-.68.65-1.29,1.45-1.34a1.61,1.61,0,0,1,1.58,1.17c.25.61.42,1.26.64,1.93l1-1.54.7.44-1.74,2.76a1,1,0,0,1-.74-.88,19.12,19.12,0,0,0-.5-2A1.19,1.19,0,0,0,12,27.5a.88.88,0,0,0-.84-.52c-.42.05-.58.38-.67.72A5.38,5.38,0,0,0,10.42,28.6Z"/><path class="cls-3" d="M87.83,20.93l-.55.62-2.41-2.21a1,1,0,0,1,1-.58A19.62,19.62,0,0,0,88,18.59a1.38,1.38,0,0,0,.6-.25.64.64,0,0,0,.06-1.1,6.78,6.78,0,0,0-1.15-.55c.22-.63.42-.72,1.12-.41A1.94,1.94,0,0,1,90,18.06a1.84,1.84,0,0,1-1.66,1.4c-.58.11-1.17.15-1.81.22l.68.63C87.37,20.51,87.58,20.71,87.83,20.93Z"/><path class="cls-5" d="M60,6.6l-.25,1.77-.94-.11.59-4.53,3,.4-.11.76-2.06-.25L60,5.81l1.81.26-.09.74Z"/><path class="cls-3" d="M104.53,55.88l.12-2.29h.87L105.35,57a4.79,4.79,0,0,1-1-.23c-1.1-.54-2.17-1.12-3.27-1.66-.35-.17-.54-.35-.44-.75a3.12,3.12,0,0,0,0-.51Z"/><path class="cls-3" d="M50.76,6.72A1.83,1.83,0,0,1,52.6,4.89a1.38,1.38,0,0,1,1.52,1.43,1.83,1.83,0,0,1-1.88,1.83A1.39,1.39,0,0,1,50.76,6.72Zm2.48-.36a.65.65,0,0,0-.7-.71.94.94,0,0,0-.9,1,.65.65,0,0,0,.7.72A1,1,0,0,0,53.24,6.36Z"/><path class="cls-5" d="M43,8.41,45.11,8l.17.73-3.05.66-1-4.45.94-.21Z"/><path class="cls-5" d="M45.39,4.11l1-.13.51,3.76L49,7.47l.1.75L46,8.64Z"/><path class="cls-5" d="M54.8,5.63c.09-.32,0-.73.55-.68.07,0,.2-.23.25-.38.19-.69.53-1.25,1.31-1.33A5.77,5.77,0,0,1,58,3.35l-.22.7c-.92-.18-1.2,0-1.32,1l.78,0L57,5.73h-.82l-.58,2.33-.86,0,.54-2.3Z"/><path class="cls-5" d="M4.16,46.05l.35,1.36-.82,0c-.13-.83-.64-1.57-.32-2.49l4.75.66-.13,1Z"/><path class="cls-3" d="M95.89,24.19l-3.82,2.92-.58-.76L94.56,24l-1.21-.7.54-.62C94.57,23.15,95.44,23.33,95.89,24.19Z"/><path class="cls-4" d="M16.33,19l3.54,3.28-.65.7-2.85-2.62-.49,1.31-.7-.43C15.53,20.44,15.58,19.56,16.33,19Z"/><path class="cls-3" d="M104.45,50.6l-.59-1.26.8-.21c.29.79.92,1.44.77,2.4l-4.78.23-.06-1Z"/><path class="cls-5" d="M26.94,15.06a.81.81,0,0,1-.82-.75.88.88,0,0,1,.82-.87.83.83,0,0,1,.82.75A.89.89,0,0,1,26.94,15.06Z"/><path class="cls-5" d="M99.51,35.55a.77.77,0,0,1-.77.78.86.86,0,0,1-.81-.86.79.79,0,0,1,.78-.78A.83.83,0,0,1,99.51,35.55Z"/><path class="cls-5" d="M82.1,14.63a.76.76,0,0,1-.76.78.82.82,0,0,1-.84-.81.77.77,0,0,1,.76-.79A.85.85,0,0,1,82.1,14.63Z"/><path class="cls-4" d="M8.69,35.08a.79.79,0,0,1,.78-.85.77.77,0,0,1,.8.75.84.84,0,0,1-.8.86A.75.75,0,0,1,8.69,35.08Z"/><path class="cls-6" d="M90,23a.62.62,0,0,1-.59-.91,3.34,3.34,0,0,1,1.92-1.73.63.63,0,0,1,.84.64A3.24,3.24,0,0,1,90,23Z"/><path class="cls-6" d="M5.32,51.27c-.4-.08-.86-.15-1.3-.28a.62.62,0,0,1-.48-.65.64.64,0,0,1,.52-.62,3.76,3.76,0,0,1,2.39.1.63.63,0,0,1,.45.67.64.64,0,0,1-.53.62C6.05,51.19,5.72,51.21,5.32,51.27Z"/><path class="cls-6" d="M103.09,45.61c.74.09,1.1.29,1.18.71s-.23.77-.93.91a9.85,9.85,0,0,1-1.8.13.55.55,0,0,1-.6-.57.93.93,0,0,1,.41-.68A14.47,14.47,0,0,1,103.09,45.61Z"/><path class="cls-6" d="M14,23.29a3.51,3.51,0,0,1,2.18,1.65.62.62,0,0,1-.72.87,3.26,3.26,0,0,1-2.1-1.63A.61.61,0,0,1,14,23.29Z"/><path class="cls-6" d="M96,29.09a.84.84,0,0,1-.87.79.85.85,0,0,1-.8-.9.81.81,0,0,1,.83-.78A.92.92,0,0,1,96,29.09Z"/><path class="cls-6" d="M64.76,5.42l.29,1.9-1.34-.27Z"/><path class="cls-6" d="M38.23,6.66l1.2,1.53-1.31.42Z"/><path class="cls-6" d="M7.07,41.66,6.76,43,5.29,41.24Z"/><path class="cls-1" d="M100.25,42.67l0-.15.12,0Z"/><path class="cls-6" d="M53.24,6.36a1,1,0,0,1-.9,1,.65.65,0,0,1-.7-.72.94.94,0,0,1,.9-1A.65.65,0,0,1,53.24,6.36Z"/><polygon class="cls-7" points="61.47 86.08 59.37 90.24 57.43 86.08 55.76 86.08 59.34 93.28 63.01 86.08 61.47 86.08"/><polygon class="cls-7" points="65.17 86.08 63.77 86.08 63.77 93.28 65.24 93.28 65.24 86.08 65.17 86.08"/><polygon class="cls-8" points="31.72 86.08 30.32 86.08 30.32 93.28 31.8 93.28 31.8 86.08 31.72 86.08"/><polygon class="cls-8" points="31.72 86.08 30.32 86.08 30.32 93.28 31.8 93.28 31.8 86.08 31.72 86.08"/><polygon class="cls-8" points="33.07 30.73 36.35 30.73 36.35 31.56 34.04 31.56 34.04 32.74 36.09 32.74 36.09 33.56 34.04 33.56 34.04 34.82 36.45 34.82 36.45 35.65 33.07 35.65 33.07 30.73"/><polygon class="cls-8" points="42.82 31.55 41.22 31.55 41.22 30.73 45.42 30.73 45.42 31.55 43.82 31.55 43.82 35.65 42.82 35.65 42.82 31.55"/><rect class="cls-8" x="46.11" y="30.73" width="1" height="4.91"/><polygon class="cls-8" points="48.17 30.73 51.37 30.73 51.37 31.56 49.16 31.56 49.16 32.87 51.07 32.87 51.07 33.7 49.16 33.7 49.16 35.65 48.17 35.65 48.17 30.73"/><rect class="cls-8" x="52.14" y="30.73" width="1" height="4.91"/><path class="cls-8" d="M61.85,33.59l-.73-2-.73,2Zm-1.23-2.86h1.06l2,4.92H62.6l-.48-1.3h-2l-.48,1.3h-1Z"/><polygon class="cls-8" points="64.91 31.55 63.31 31.55 63.31 30.73 67.51 30.73 67.51 31.55 65.91 31.55 65.91 35.65 64.91 35.65 64.91 31.55"/><polygon class="cls-8" points="68.2 30.73 71.49 30.73 71.49 31.56 69.17 31.56 69.17 32.74 71.22 32.74 71.22 33.56 69.17 33.56 69.17 34.82 71.58 34.82 71.58 35.65 68.2 35.65 68.2 30.73"/><polygon class="cls-8" points="23 37.82 27.6 37.82 27.6 38.98 24.36 38.98 24.36 40.62 27.23 40.62 27.23 41.77 24.36 41.77 24.36 43.54 27.73 43.54 27.73 44.7 23 44.7 23 37.82"/><polygon class="cls-8" points="30.93 41.12 28.61 37.82 30.24 37.82 31.81 40.18 33.33 37.82 34.93 37.82 32.59 41.14 35.09 44.7 33.43 44.7 31.71 42.08 30 44.7 28.4 44.7 30.93 41.12"/><polygon class="cls-8" points="42.4 37.82 47 37.82 47 38.98 43.76 38.98 43.76 40.62 46.62 40.62 46.62 41.77 43.76 41.77 43.76 43.54 47.13 43.54 47.13 44.7 42.4 44.7 42.4 37.82"/><polygon class="cls-8" points="48.37 37.82 49.77 37.82 49.77 43.56 52.92 43.56 52.92 44.7 48.37 44.7 48.37 37.82"/><polygon class="cls-8" points="53.9 37.82 55.3 37.82 55.3 43.56 58.45 43.56 58.45 44.7 53.9 44.7 53.9 37.82"/><polygon class="cls-8" points="59.42 37.82 64.02 37.82 64.02 38.98 60.78 38.98 60.78 40.62 63.65 40.62 63.65 41.77 60.78 41.77 60.78 43.54 64.15 43.54 64.15 44.7 59.42 44.7 59.42 37.82"/><polygon class="cls-8" points="65.39 37.82 66.64 37.82 70.29 42.6 70.29 37.82 71.62 37.82 71.62 44.7 70.37 44.7 66.72 39.94 66.72 44.7 65.39 44.7 65.39 37.82"/><polygon class="cls-8" points="79.9 37.82 84.5 37.82 84.5 38.98 81.25 38.98 81.25 40.62 84.12 40.62 84.12 41.77 81.25 41.77 81.25 43.54 84.63 43.54 84.63 44.7 79.9 44.7 79.9 37.82"/><polygon class="cls-8" points="55.6 22.31 54.43 22.82 54.29 22.09 55.78 21.44 56.45 21.44 56.45 25.89 55.6 25.89 55.6 22.31"/><path class="cls-8" d="M30.18,84a.88.88,0,1,0,.88-.87.87.87,0,0,0-.88.87"/><path class="cls-9" d="M61.12,55.87a10.94,10.94,0,0,1,3.49-.66A26.36,26.36,0,0,0,53.87,53.1a27.59,27.59,0,0,0-10.76,2.07A11,11,0,0,1,53.92,65.3a10.88,10.88,0,0,1,7.2-9.43"/><path class="cls-10" d="M64.94,71.4A5.4,5.4,0,1,1,70.4,66a5.45,5.45,0,0,1-5.46,5.4m-3-13.46a8.72,8.72,0,0,0-5,4.54,8.56,8.56,0,0,0-.26,6.68h0a8.66,8.66,0,0,0,4.59,4.9,8.85,8.85,0,0,0,6.76.27,8.72,8.72,0,0,0,5.23-11.22,8.89,8.89,0,0,0-11.36-5.17"/><path class="cls-10" d="M64.94,67.82A1.82,1.82,0,1,1,66.77,66a1.83,1.83,0,0,1-1.83,1.82m0-5.36A3.54,3.54,0,1,0,68.52,66a3.57,3.57,0,0,0-3.58-3.54"/><path class="cls-10" d="M42.74,67.82A1.82,1.82,0,1,1,44.58,66a1.83,1.83,0,0,1-1.84,1.82m0-5.36A3.54,3.54,0,1,0,46.33,66a3.58,3.58,0,0,0-3.58-3.54"/><path class="cls-10" d="M42.75,71.4A5.4,5.4,0,1,1,48.21,66a5.45,5.45,0,0,1-5.46,5.4m.14-14a8.73,8.73,0,1,0,8.83,8.74,8.8,8.8,0,0,0-8.83-8.74"/><path class="cls-11" d="M42.74,64.18A1.82,1.82,0,1,0,44.58,66a1.82,1.82,0,0,0-1.84-1.82"/><path class="cls-7" d="M64.94,64.18A1.82,1.82,0,1,0,66.77,66a1.83,1.83,0,0,0-1.83-1.82"/><path class="cls-8" d="M42.75,69.54A3.54,3.54,0,1,1,46.33,66a3.58,3.58,0,0,1-3.58,3.54m0-8.94A5.4,5.4,0,1,0,48.21,66a5.45,5.45,0,0,0-5.46-5.4"/><path class="cls-8" d="M64.94,69.54A3.54,3.54,0,1,1,68.52,66a3.57,3.57,0,0,1-3.58,3.54m0-8.94A5.4,5.4,0,1,0,70.4,66a5.45,5.45,0,0,0-5.46-5.4"/><path class="cls-8" d="M80.15,55.23a1.24,1.24,0,0,1,.37.89,1.21,1.21,0,0,1-.39.9,1.3,1.3,0,0,1-.91.37,1.3,1.3,0,0,1-1.28-1.27,1.3,1.3,0,0,1,.39-.92,1.29,1.29,0,0,1,.89-.36,1.28,1.28,0,0,1,.93.39m-1.66.14a1.08,1.08,0,0,0-.31.75,1.06,1.06,0,0,0,1,1,1.09,1.09,0,0,0,.75-.3,1,1,0,0,0,.31-.74,1,1,0,0,0-.3-.73,1,1,0,0,0-.75-.32,1.05,1.05,0,0,0-.74.3m.76,0c.41,0,.61.15.61.41a.37.37,0,0,1-.3.37l.32.62h-.43l-.27-.56h-.11v.56h-.39v-1.4Zm-.18.62h.14c.17,0,.25-.06.25-.19s-.08-.19-.27-.19h-.12Z"/><path class="cls-8" d="M68,74.33a8.88,8.88,0,0,1-6.77-.27,8.65,8.65,0,0,1-4.58-4.9h0a8.56,8.56,0,0,1,.26-6.68,8.72,8.72,0,0,1,5-4.54,8.89,8.89,0,0,1,11.36,5.17A8.72,8.72,0,0,1,68,74.33m-14.1-9A11,11,0,0,0,43.11,55.16,27.77,27.77,0,0,1,53.87,53.1a26.23,26.23,0,0,1,10.74,2.11A10.92,10.92,0,0,0,53.92,65.3m-11,9.52a8.73,8.73,0,1,1,8.84-8.72,8.79,8.79,0,0,1-8.84,8.72M75.35,62.34a10.71,10.71,0,0,0-1.5-2.72A14,14,0,0,1,76,55.24H68.64a27.17,27.17,0,0,0-14.77-4.05,27.84,27.84,0,0,0-15.14,4.1H31.8A14.24,14.24,0,0,1,34,59.63,10.72,10.72,0,0,0,31.8,66.1a11.1,11.1,0,0,0,19.72,6.83l2.35,3.49,2.39-3.52a11.13,11.13,0,0,0,12.53,3.5,10.92,10.92,0,0,0,6.56-14.06"/><path class="cls-8" d="M21.86,83.91l-1.33.45v1.72H19.05v1.15h1.43v3.7c0,1.76.61,2.48,2.1,2.48a4.48,4.48,0,0,0,1.1-.14l.06,0,0-1.19-.1,0a2.26,2.26,0,0,1-.7.15c-.7,0-1-.39-1-1.44V87.23h1.71V86.08H22V83.87Z"/><path class="cls-8" d="M26.47,87.25V86.08H25.12v7.2h1.47V89.67c0-1.52.65-2.35,1.82-2.35a1.75,1.75,0,0,1,.53.08l.1,0,0-1.42-.63,0a2.17,2.17,0,0,0-2,1.3"/><path class="cls-8" d="M37,85.91a2.86,2.86,0,0,0-2.44,1.34V86.08H33.23V96.22h1.48V92.29A2.71,2.71,0,0,0,37,93.39c1.87,0,3.07-1.51,3.07-3.85,0-2.17-1.21-3.63-3-3.63m-.41,6.31c-1.17,0-1.9-1-1.9-2.58s.77-2.52,1.95-2.52,1.83.94,1.83,2.5-.72,2.6-1.88,2.6"/><path class="cls-7" d="M63.62,84a.88.88,0,1,0,.88-.87.88.88,0,0,0-.88.87"/><path class="cls-7" d="M44.36,85.91a5.61,5.61,0,0,0-2.42.51l0,0,0,1.24.12-.06A4,4,0,0,1,44,87.05a1.52,1.52,0,0,1,1.68,1.66v.06h-.84c-2.44,0-3.78.88-3.78,2.46a2.16,2.16,0,0,0,2.35,2.15,2.8,2.8,0,0,0,2.37-1.14v1H47.1V88.92c0-2-.92-3-2.74-3m1.3,4.33a1.86,1.86,0,0,1-1.92,2.05,1.13,1.13,0,0,1-1.22-1.13c0-.88.85-1.36,2.38-1.36h.76Z"/><path class="cls-7" d="M53.38,82.64v4.42a2.67,2.67,0,0,0-2.28-1.15c-1.81,0-3,1.47-3,3.66s1.23,3.82,3,3.82a2.7,2.7,0,0,0,2.42-1.34v1.23h1.37V82.64Zm-1.93,9.55c-1.12,0-1.82-1-1.82-2.54s.7-2.57,1.8-2.57,2,1,2,2.57-.76,2.54-1.93,2.54"/><path class="cls-7" d="M67,87.93c0,1,.7,1.55,2,2.17.82.4,1.25.63,1.25,1.2s-.52.94-1.34.94A4.33,4.33,0,0,1,67,91.77l-.1,0L66.88,93l.05,0a5.09,5.09,0,0,0,1.9.36c1.81,0,3-.86,3-2.17,0-1.1-.74-1.66-2-2.25-.94-.43-1.33-.69-1.33-1.15s.43-.72,1.11-.72a4.05,4.05,0,0,1,1.77.4l.11,0,.07-1.25-.06,0a6.81,6.81,0,0,0-1.8-.26c-1.61,0-2.68.77-2.68,1.93"/><path class="cls-7" d="M76.42,85.91A3.77,3.77,0,1,0,80,89.68a3.42,3.42,0,0,0-3.62-3.77m0,6.35c-1.23,0-2-1-2-2.59s.82-2.61,2-2.61,2,1,2,2.61-.8,2.59-2,2.59"/><path class="cls-7" d="M82.77,87.25V86.08H81.42v7.2H82.9V89.67c0-1.52.64-2.35,1.81-2.35a1.75,1.75,0,0,1,.53.08l.1,0,0-1.42-.64,0a2.18,2.18,0,0,0-2,1.3"/><path class="cls-12" d="M88,85.37a1.25,1.25,0,0,0-.92.37,1.3,1.3,0,0,0-.4.93,1.27,1.27,0,0,0,.38.91A1.29,1.29,0,0,0,88,88a1.33,1.33,0,0,0,.93-.38,1.3,1.3,0,0,0,0-1.84,1.31,1.31,0,0,0-1-.39m0,2.37a1.07,1.07,0,0,1-.77-.33,1,1,0,0,1-.31-.74,1.08,1.08,0,0,1,2.16,0,1,1,0,0,1-.32.76,1.1,1.1,0,0,1-.76.31m-.16-1.18v-.38h.11c.2,0,.29,0,.29.19s-.09.19-.26.19Zm.18-.63H87.4v1.43h.4v-.57h.11l.28.57h.43l-.32-.63a.39.39,0,0,0,.31-.39c0-.26-.21-.41-.63-.41"/><path class="cls-8" d="M76.43,44.8a4.21,4.21,0,0,1-1.92-.42,3.15,3.15,0,0,1-1.31-1.22,3.54,3.54,0,0,1-.48-1.87,3.6,3.6,0,0,1,.47-1.82,3.32,3.32,0,0,1,1.32-1.28,4.12,4.12,0,0,1,2-.47,4.74,4.74,0,0,1,1.16.15,3.74,3.74,0,0,1,1,.4l-.23,1.17A4.31,4.31,0,0,0,76.52,39a2.51,2.51,0,0,0-1.21.28,2.11,2.11,0,0,0-.84.81,2.44,2.44,0,0,0-.3,1.23A2.28,2.28,0,0,0,74.81,43a2.41,2.41,0,0,0,1.73.62,4.23,4.23,0,0,0,1-.14,5,5,0,0,0,1-.38l.15,1.19a3.85,3.85,0,0,1-1.08.41,5,5,0,0,1-1.22.15"/><path class="cls-8" d="M38.93,44.8A4.24,4.24,0,0,1,37,44.38a3.21,3.21,0,0,1-1.31-1.22,3.54,3.54,0,0,1-.47-1.87,3.59,3.59,0,0,1,.46-1.82A3.32,3.32,0,0,1,37,38.19a4.15,4.15,0,0,1,2-.47,4.68,4.68,0,0,1,1.16.15,3.74,3.74,0,0,1,1,.4l-.23,1.17A4.31,4.31,0,0,0,39,39a2.51,2.51,0,0,0-1.21.28A2,2,0,0,0,37,40a2.34,2.34,0,0,0-.31,1.23A2.28,2.28,0,0,0,37.31,43a2.42,2.42,0,0,0,1.74.62,4.22,4.22,0,0,0,1-.14,5,5,0,0,0,1-.38l.15,1.19a3.85,3.85,0,0,1-1.08.41,5,5,0,0,1-1.22.15"/><path class="cls-8" d="M75.08,35.08a1,1,0,0,0,.54-.16,1.06,1.06,0,0,0,.41-.45,1.35,1.35,0,0,0,.16-.64.9.9,0,0,0-.23-.65.76.76,0,0,0-.6-.23,1,1,0,0,0-.55.16,1.13,1.13,0,0,0-.41.45,1.34,1.34,0,0,0-.15.64.9.9,0,0,0,.22.65.78.78,0,0,0,.61.23m-.06.67a1.62,1.62,0,0,1-.77-.18A1.47,1.47,0,0,1,73.7,35a1.57,1.57,0,0,1-.2-.79,2,2,0,0,1,.24-1,2,2,0,0,1,.68-.72,1.81,1.81,0,0,1,1-.28,1.66,1.66,0,0,1,.78.18,1.47,1.47,0,0,1,.55.53,1.57,1.57,0,0,1,.2.79,2,2,0,0,1-.25,1,1.88,1.88,0,0,1-.68.72,1.81,1.81,0,0,1-1,.28"/><path class="cls-8" d="M78.08,33h-.6l.12-.63h.6l.11-.54a2,2,0,0,1,.54-1.09,1.45,1.45,0,0,1,1-.37,1.37,1.37,0,0,1,.4.05.86.86,0,0,1,.32.13l-.15.61a1.08,1.08,0,0,0-.53-.14.78.78,0,0,0-.57.22A1.34,1.34,0,0,0,79,32l-.08.43h.92l-.12.63h-.93l-.51,2.64h-.76Z"/><path class="cls-8" d="M30.59,35.72a3,3,0,0,1-1.37-.3,2.26,2.26,0,0,1-.94-.87,2.77,2.77,0,0,1,0-2.64,2.38,2.38,0,0,1,.95-.91,3,3,0,0,1,1.42-.34,3.44,3.44,0,0,1,.83.11,2.64,2.64,0,0,1,.72.29l-.16.83a3.2,3.2,0,0,0-1.38-.35,1.85,1.85,0,0,0-.86.2,1.59,1.59,0,0,0-.6.58,1.76,1.76,0,0,0-.21.88,1.59,1.59,0,0,0,.46,1.2,1.7,1.7,0,0,0,1.23.44,2.78,2.78,0,0,0,.73-.1,3,3,0,0,0,.73-.27l.1.85a2.52,2.52,0,0,1-.77.29,3.64,3.64,0,0,1-.87.11"/><path class="cls-8" d="M38.29,33.1h.49c.69,0,1-.27,1-.8a.7.7,0,0,0-.25-.57,1.16,1.16,0,0,0-.75-.2h-.52Zm-1-2.37H39a2,2,0,0,1,1.35.42,1.42,1.42,0,0,1,.49,1.15,1.39,1.39,0,0,1-.22.78,1.66,1.66,0,0,1-.61.56l1.33,2H40.16l-1.07-1.77h-.8v1.76h-1Z"/><path class="cls-8" d="M46.73,25.89v-.66a14.39,14.39,0,0,0,1.17-1.15,5,5,0,0,0,.6-.79,1.18,1.18,0,0,0,.16-.58.63.63,0,0,0-.18-.47.69.69,0,0,0-.48-.17,1.26,1.26,0,0,0-.57.14,1.55,1.55,0,0,0-.51.38l-.15-.73a1.71,1.71,0,0,1,.61-.38,2.12,2.12,0,0,1,.75-.14,1.55,1.55,0,0,1,1,.34,1.2,1.2,0,0,1,.38.92,1.87,1.87,0,0,1-.22.87,4.92,4.92,0,0,1-.7,1c-.14.15-.37.38-.7.68h1.75v.76Z"/><path class="cls-8" d="M52,25.22c.5,0,.74-.52.74-1.56S52.48,22.1,52,22.1s-.73.52-.73,1.56.25,1.56.73,1.56M52,26a1.39,1.39,0,0,1-1.21-.61,2.92,2.92,0,0,1-.44-1.71,2.87,2.87,0,0,1,.44-1.7A1.4,1.4,0,0,1,52,21.34,1.42,1.42,0,0,1,53.2,22a2.91,2.91,0,0,1,.44,1.7,2.92,2.92,0,0,1-.44,1.71A1.41,1.41,0,0,1,52,26"/><path class="cls-8" d="M56.57,35.72a3,3,0,0,1-1.36-.3,2.26,2.26,0,0,1-.94-.87,2.51,2.51,0,0,1-.34-1.33,2.6,2.6,0,0,1,.33-1.31,2.38,2.38,0,0,1,1-.91,3,3,0,0,1,1.42-.34,3.36,3.36,0,0,1,.82.11,2.59,2.59,0,0,1,.73.29l-.17.83a3.13,3.13,0,0,0-1.37-.35,1.85,1.85,0,0,0-.86.2,1.46,1.46,0,0,0-.6.58,1.77,1.77,0,0,0-.22.88,1.63,1.63,0,0,0,.46,1.2,1.74,1.74,0,0,0,1.24.44,2.78,2.78,0,0,0,.73-.1,3,3,0,0,0,.72-.27l.11.85a2.62,2.62,0,0,1-.77.29,3.72,3.72,0,0,1-.88.11"/><path class="cls-13" d="M60.48,23.52a1.17,1.17,0,0,0-.38-2.1,2.3,2.3,0,0,0-.74-.07,1.27,1.27,0,0,0-1.28.76,1.13,1.13,0,0,0,.41,1.4A1.22,1.22,0,0,0,58,25a1.37,1.37,0,0,0,1.37.86,1.31,1.31,0,0,0,.28,0A1.38,1.38,0,0,0,61,25,1.24,1.24,0,0,0,60.48,23.52Zm-1-1.49c.42,0,.69.23.68.59a.53.53,0,0,1-.49.56c-.59,0-.86-.22-.84-.59S59.09,22,59.47,22Zm0,3.14a.66.66,0,0,1-.76-.63.65.65,0,0,1,.75-.64c.46,0,.74.25.73.65A.65.65,0,0,1,59.5,25.17Z"/></svg>