<svg id="Capa_1" data-name="Capa 1" xmlns="http://www.w3.org/2000/svg" viewBox="0 0 156 186.73"><title>Mesa de trabajo 1</title><path d="M0,117.07c14.11,2.28,22.64,13.53,26,21.07a17.93,17.93,0,0,1-5.23-.94,27.06,27.06,0,0,1-10.63-6.59,52.09,52.09,0,0,1-10-13.14.57.57,0,0,0-.16-.15Z"/><path d="M35.45,110.53A42.56,42.56,0,1,1,78,153.12H77A42.54,42.54,0,0,1,35.45,110.53Zm4.81,0a37.54,37.54,0,1,0,0-.51Z"/><path d="M52.73,50.5H48.62a.51.51,0,0,1-.37-.3,5,5,0,0,0-5-3.49,5.55,5.55,0,0,0-5.39,3.37A7.1,7.1,0,0,0,39.5,58.5c2.5,2,6.57,1.5,8.17-1.08a12.47,12.47,0,0,0,.73-1.52h4.4a8.55,8.55,0,0,1-1.33,3.58C49.26,62.83,46,64,42.17,63.73a9.88,9.88,0,0,1-9.06-7.86A10.72,10.72,0,0,1,37.88,44c3.87-2.28,9.49-1.69,12.41,1.32A9.21,9.21,0,0,1,52.73,50.5Z"/><path d="M3.74,98.33A31.64,31.64,0,0,1,16,108.21a42.62,42.62,0,0,1,7.44,17.3c-.54-.18-.94-.3-1.34-.46a23.06,23.06,0,0,1-9.61-7.38,47.16,47.16,0,0,1-7.16-13.56c-.62-1.76-1-3.6-1.55-5.4C3.77,98.58,3.75,98.46,3.74,98.33Z"/><path d="M129.8,138.11c5.77-10.8,13.64-18.72,26.2-21-.13.29-.21.49-.3.67a50.61,50.61,0,0,1-8,11,32,32,0,0,1-8.75,6.9,22.39,22.39,0,0,1-8.06,2.45C130.58,138.14,130.29,138.11,129.8,138.11Z"/><path d="M6.86,79.25a31.34,31.34,0,0,1,10.37,9.86,43.62,43.62,0,0,1,6.55,19.27l-.16.14c-.72-.38-1.46-.71-2.15-1.14a24.88,24.88,0,0,1-9.1-10.14A54.08,54.08,0,0,1,7,80.43,10.1,10.1,0,0,1,6.86,79.25Z"/><path d="M132.55,125.5a43,43,0,0,1,8.15-18.21c3.51-4.5,9.12-8,11.56-8.83-.11.52-.19,1-.31,1.47a49,49,0,0,1-8.45,17.75,22.5,22.5,0,0,1-9.95,7.51C133.27,125.3,133,125.37,132.55,125.5Z"/><path d="M149.28,79.45c-.47,2.25-.86,4.53-1.44,6.75a46.67,46.67,0,0,1-5.78,13.73,22.58,22.58,0,0,1-9.07,8.29c-.2.1-.41.18-.74.31a44.22,44.22,0,0,1,5-16.87A31.72,31.72,0,0,1,149,79.33Z"/><path d="M9.56,140.11a31.13,31.13,0,0,1,13,.08,39.6,39.6,0,0,1,17.29,9.14v.25c-1.15.23-2.29.54-3.45.69a25.92,25.92,0,0,1-13.81-2.19,49.42,49.42,0,0,1-12.28-7.32Z"/><path d="M116.05,149.46a40.16,40.16,0,0,1,15-8.65,31.27,31.27,0,0,1,15.31-.73,1.94,1.94,0,0,1-.21.29A45.48,45.48,0,0,1,128,149.85a21.9,21.9,0,0,1-10.85,0C116.83,149.72,116.52,149.61,116.05,149.46Z"/><path d="M58.69,50.63a5.81,5.81,0,0,1,5.14-2A4.49,4.49,0,0,1,68,53.05c.13,3.38,0,6.77,0,10.16a.35.35,0,0,1-.06.14H64V54.93a2.61,2.61,0,0,0-2.52-2.7h0a2.45,2.45,0,0,0-1.07.19,2.69,2.69,0,0,0-1.66,2.72v8.21h-4V43.09h4Z"/><path d="M56.49,37.28H52.74V35.7a10.66,10.66,0,0,1-1.12,1,6.21,6.21,0,0,1-6.31.39,7.06,7.06,0,0,1-4.11-5.85A7.52,7.52,0,0,1,45,23.37a6.81,6.81,0,0,1,7.52.54.94.94,0,0,0,.22.12V23h3.73ZM45.24,30.13A3.75,3.75,0,1,0,49,26.35a3.63,3.63,0,0,0-3.72,3.54h0a.89.89,0,0,0,0,.23Z"/><path d="M54.36,157.61a20.64,20.64,0,0,1-5.4,1.84,34.41,34.41,0,0,1-12.06.12,64,64,0,0,1-12.43-3c-.19-.06-.37-.15-.72-.29.9-.5,1.66-.94,2.44-1.33a25.42,25.42,0,0,1,17.59-1.81,31.92,31.92,0,0,1,10,4Z"/><path d="M101.62,157.58a32.47,32.47,0,0,1,15.85-5.15,24.6,24.6,0,0,1,14.78,3.91c-.52.2-.91.36-1.31.49a61.58,61.58,0,0,1-17,3.2,25.71,25.71,0,0,1-11.62-2A5.33,5.33,0,0,0,101.62,157.58Z"/><path d="M122.77,57.2H112.22a3.42,3.42,0,0,0,6.61,1h3.87a6.61,6.61,0,0,1-2.27,4,8,8,0,0,1-10.38-.8,7.67,7.67,0,0,1-1.5-7.82,6.79,6.79,0,0,1,5.71-4.88c3.27-.51,6.32.53,7.73,3.53A10.2,10.2,0,0,1,122.77,57.2Zm-10.32-3.14h6.44A3,3,0,0,0,116,51.78a3.37,3.37,0,0,0-3.56,2.28Z"/><path d="M109,32.16a6.4,6.4,0,0,1-2.75,4.37,8,8,0,0,1-9.75-1,7.53,7.53,0,0,1-1.59-8.06A6.93,6.93,0,0,1,101,22.6a8,8,0,0,1,3.6.37,6.23,6.23,0,0,1,4.27,5.22c.17.93.19,1.88.28,2.89H98.56a3.28,3.28,0,0,0,2.74,3.19,3.33,3.33,0,0,0,3.7-1.83.49.49,0,0,1,.34-.27C106.53,32.15,107.73,32.16,109,32.16ZM98.8,28h6.39a3,3,0,0,0-3.14-2.27A3.22,3.22,0,0,0,98.8,28Z"/><path d="M86.89,31.08H76.23a3.35,3.35,0,0,0,1,2.27c1.64,1.66,4.77,1,5.46-.86a.54.54,0,0,1,.37-.32H86.7a6,6,0,0,1-2.7,4.3,7.72,7.72,0,0,1-8.5.09c-2.73-1.66-3.66-4.34-3.29-7.42.75-6.29,7.51-8.09,11.67-5.42a6.67,6.67,0,0,1,2.85,5.19C86.83,29.6,86.84,30.3,86.89,31.08ZM83,28a3.17,3.17,0,0,0-3.54-2.26A3.09,3.09,0,0,0,76.53,28Z"/><path d="M77.33,48.63A7.4,7.4,0,0,1,85,54.73a7.55,7.55,0,0,1-8.38,9,7,7,0,0,1-6.43-4.59A7.51,7.51,0,0,1,71.56,51,7.32,7.32,0,0,1,77.33,48.63Zm0,11.33A3.58,3.58,0,0,0,81,56.51v-.32a3.63,3.63,0,0,0-3.46-3.79h-.18a3.59,3.59,0,0,0-3.68,3.49v.25A3.54,3.54,0,0,0,76.88,60H77Z"/><path d="M86.12,183H82.84v-1a6.64,6.64,0,0,1-6,.84,6.43,6.43,0,0,1-3.36-2.6,6.68,6.68,0,0,1,9.39-9.16V165.6h3.34Zm-3.31-6.43a3.6,3.6,0,1,0-3.62,3.62h.08a3.59,3.59,0,0,0,3.54-3.64h0Z"/><path d="M33.07,17v4H27.59V37.27H23.27V21H17.74V17Z"/><path d="M45.38,182.05v4.68H42.05V170.17h3.28l.06,1a6.62,6.62,0,0,1,5.91-.9,6.49,6.49,0,0,1,3.42,2.54,6.65,6.65,0,0,1-.39,8.1Q51.15,184.71,45.38,182.05Zm3.59-1.9a3.59,3.59,0,1,0-3.61-3.58h0A3.61,3.61,0,0,0,49,180.15h0Z"/><path d="M107.38,54.42h-4a.49.49,0,0,1-.37-.25,3,3,0,0,0-3.09-1.74,3.34,3.34,0,0,0-3,2,3.83,3.83,0,0,0,1.59,5.16,3.52,3.52,0,0,0,.63.27,3.23,3.23,0,0,0,3.9-1.57.51.51,0,0,1,.34-.28h4a7,7,0,0,1-2.21,4.17c-2.47,2.18-8.78,2.75-11.54-1.71a7.66,7.66,0,0,1-.27-8A7,7,0,0,1,100,48.63a8.57,8.57,0,0,1,4.19.9A6.15,6.15,0,0,1,107.38,54.42Z"/><path d="M23.23,127.36c6.84-.07,18.42,9.41,21.1,17.33-.78-.11-1.5-.16-2.21-.3a19.6,19.6,0,0,1-8.81-4.29,41,41,0,0,1-9.82-12.17C23.4,127.75,23.32,127.56,23.23,127.36Z"/><path d="M132.88,127.48c-1,1.66-2,3.38-3.19,5a34.89,34.89,0,0,1-8.94,9.07,18.14,18.14,0,0,1-8.58,3.09,4.86,4.86,0,0,1-.54,0,34.84,34.84,0,0,1,8.94-11.7,26.16,26.16,0,0,1,12.12-5.65Z"/><path d="M132,87.61c.08.89.17,1.62.2,2.35a42.94,42.94,0,0,1-1.74,14.3,18.85,18.85,0,0,1-6,9.32c-.17.14-.36.26-.65.46a36.2,36.2,0,0,1,1.52-16.14A26,26,0,0,1,132,87.61Z"/><path d="M24,87.63a25.91,25.91,0,0,1,6.79,10.6,36.39,36.39,0,0,1,1.39,15.92c-.82-.75-1.56-1.34-2.2-2A22.08,22.08,0,0,1,24.66,101,44.57,44.57,0,0,1,23.9,88.4,3.44,3.44,0,0,0,24,87.63Z"/><path d="M118,131.59a35.1,35.1,0,0,1,6.87-14,26,26,0,0,1,10.3-7.44c-.11.41-.17.7-.25,1a39.61,39.61,0,0,1-8.06,14.9,17.88,17.88,0,0,1-8.07,5.32A6.54,6.54,0,0,1,118,131.59Z"/><path d="M20.83,110.26c7.13,1.82,15.7,12.51,17.09,21.33-.53-.16-1-.29-1.47-.47a19.67,19.67,0,0,1-8.91-7A41.67,41.67,0,0,1,21,111.05,3.53,3.53,0,0,0,20.83,110.26Z"/><path d="M67.54,171.06v-.9h3.29V183H67.6l-.06-.94a6.68,6.68,0,0,1-6,.85,6.41,6.41,0,0,1-3.34-2.54,6.65,6.65,0,0,1,.35-8C60.78,169.71,63.65,169.29,67.54,171.06Zm0,5.52A3.58,3.58,0,1,0,64,180.15h0a3.57,3.57,0,0,0,3.57-3.57h0Z"/><path d="M127.6,27.11c-.36-1.07-1-1.53-1.9-1.23a1.59,1.59,0,0,0-.86.83c-.18.46.18.84.62,1,.77.29,1.56.51,2.35.75l.47.13c1.82.48,3.18,1.43,3.45,3.43a4.85,4.85,0,0,1-2.53,5,6.37,6.37,0,0,1-7.34-1,4.71,4.71,0,0,1-1.27-3.36h4.07a2.4,2.4,0,0,1,.12.38,1.66,1.66,0,0,0,2,1.21,1.54,1.54,0,0,0,.58-.27,1.07,1.07,0,0,0,.27-1.49h0a1,1,0,0,0-.25-.25,4.62,4.62,0,0,0-1.26-.62c-.64-.23-1.31-.4-2-.59-2.19-.65-3.32-2-3.35-4A4.22,4.22,0,0,1,124,22.88a6.54,6.54,0,0,1,5.11.39,4.11,4.11,0,0,1,2.18,3.86Z"/><path d="M72.28,22.94c-.44,1.31-.85,2.53-1.25,3.76-1.12,3.36-2.25,6.72-3.35,10.09a.63.63,0,0,1-.71.54H63.31a.78.78,0,0,1-.57-.37q-2.33-7-4.6-13.81v-.21h3.25c1,0,1,0,1.34,1,.79,2.76,1.59,5.52,2.42,8.43.33-1.11.61-2.09.89-3.07.57-2,1.14-3.92,1.68-5.89.11-.37.25-.49.63-.49C69.64,23,70.92,22.94,72.28,22.94Z"/><path d="M130.73,176.61a6.7,6.7,0,1,1,0-.05Zm-6.66,3.54a3.59,3.59,0,1,0-3.58-3.6h0a3.6,3.6,0,0,0,3.58,3.58Z"/><path d="M24.92,183H21.61V168.55H17v-3H29.59v2.93H24.92Z"/><path d="M88.73,17h4V37.28h-4Z"/><path d="M106.24,178.68h3.15a.7.7,0,0,1,.08.2,2,2,0,0,0,2.26,1.71h0a1.8,1.8,0,0,0,.63-.21,1.23,1.23,0,0,0,.87-1.1,1.11,1.11,0,0,0-.74-1.18c-.78-.31-1.6-.52-2.4-.8a11,11,0,0,1-2-.77,3.28,3.28,0,0,1-.14-5.66,5.93,5.93,0,0,1,6.18-.27,3.26,3.26,0,0,1,1.83,3.3h-2.7c-.12,0-.29-.19-.34-.33a1.94,1.94,0,0,0-2.55-1h0a1.79,1.79,0,0,0-.44.27.9.9,0,0,0-.1,1.27h0a.77.77,0,0,0,.19.17,3.79,3.79,0,0,0,1.12.51c.82.26,1.67.45,2.49.71a3.45,3.45,0,0,1,2.79,3.1,3.87,3.87,0,0,1-2,3.79,6.18,6.18,0,0,1-6.66-.32A4.11,4.11,0,0,1,106.24,178.68Z"/><path d="M87.27,170.12h3.17c.4,0,.4.26.48.5.85,2.67,1.69,5.35,2.53,8a3.32,3.32,0,0,0,.23.68c.12-.31.2-.49.25-.67.84-2.65,1.68-5.3,2.5-8a.69.69,0,0,1,.76-.59h0c.93.05,1.85,0,2.89,0l-4.4,13H92.05c-.47,0-.48-.32-.57-.59-1.17-3.39-2.33-6.77-3.48-10.17C87.76,171.57,87.52,170.87,87.27,170.12Z"/><path d="M36.19,37.29H32.13V23H35.9v1.93a3.09,3.09,0,0,1,2-1.78c.91-.13,1.82-.22,2.73-.26v4h-2c-1.7,0-2.43.71-2.43,2.41v8Z"/><path d="M119.48,23v3.87h-2c-1.77,0-2.47.7-2.48,2.48V37.3h-4V23h3.77v2C115.64,22.74,117.54,22.88,119.48,23Z"/><path d="M40,146.52c7.31-1,13.4,1.61,18.92,6v.22c-.73.12-1.46.29-2.19.35A17,17,0,0,1,49,151.86a34.7,34.7,0,0,1-8.29-4.61c-.25-.19-.48-.39-.72-.59C40.06,146.68,40.06,146.63,40,146.52Z"/><path d="M97.05,152.72c3.2-4.09,14.6-7.76,19-6.08-.94.68-1.8,1.35-2.71,1.93A28.41,28.41,0,0,1,103.16,153a14.29,14.29,0,0,1-5.53-.06A4.07,4.07,0,0,0,97.05,152.72Z"/><path d="M86.73,49.05h4v14.3h-4Z"/><path d="M77.15,6.08A6,6,0,0,1,65.29,7.9a5.88,5.88,0,0,1,0-1.51h0c0-3.6,2.36-6.26,5.71-6.3a5.84,5.84,0,0,1,6.18,5.48h0C77.15,5.72,77.15,5.9,77.15,6.08Zm-10.1,0a4.24,4.24,0,0,0,2.53,4.17A4.1,4.1,0,0,0,75,8.13l0-.05a4.66,4.66,0,0,0-2-6,4.15,4.15,0,0,0-5.52,2,4.23,4.23,0,0,0-.39,2Z"/><path d="M94.51.05a5.83,5.83,0,0,1,5.94,5.72h0a2.29,2.29,0,0,1,0,.37,6,6,0,0,1-11.9.25V6.17A5.8,5.8,0,0,1,94,.06ZM90.35,6.62a4.13,4.13,0,0,0,8.16.71,4.56,4.56,0,0,0-2.23-5.27C93.37.71,90.35,2.77,90.35,6.62Z"/><path d="M132.29,170.15h3.29v1.54c.87-1.82,2.47-1.6,4.06-1.55v3.07H138c-1.74,0-2.42.7-2.42,2.44V183h-3.3Z"/><path d="M35.38,173.21H33.75c-1.74,0-2.45.71-2.45,2.44V183H28V170.16h3.23v1.58c.87-1.87,2.5-1.66,4.11-1.6Z"/><path d="M36.88,170.14h3.23V183H36.88Z"/><path d="M104.74,183h-3.22V170.15h3.22Z"/><path d="M63.43,11.85H55.57a1.93,1.93,0,0,1,.59-2c1.52-1.33,3-2.73,4.41-4.17a3.88,3.88,0,0,0,1-1.66A1.8,1.8,0,0,0,60.33,1.8h-.09a2.17,2.17,0,0,0-2.79,1.07c-.26.85-.74.93-1.44.85a3.69,3.69,0,0,0-.47,0A3.5,3.5,0,0,1,58.72.09a6.71,6.71,0,0,1,1.79,0,3.37,3.37,0,0,1,2.88,3.8h0A3.6,3.6,0,0,1,63,5.09a8.07,8.07,0,0,1-1.58,2c-1,1-2.15,2-3.37,3.1h5.37Z"/><path d="M78.79,3.64A3.44,3.44,0,0,1,80.7.51a4.67,4.67,0,0,1,4-.13,3.45,3.45,0,0,1,1.76,4.55,3.81,3.81,0,0,1-.29.52,9.88,9.88,0,0,1-1.51,1.78c-.84.83-1.74,1.59-2.61,2.38l-.65.6h5.37v1.62H78.89a1.82,1.82,0,0,1,.64-2C81,8.49,82.46,7.08,83.9,5.7a4.09,4.09,0,0,0,.75-1A2,2,0,0,0,84,2l-.2-.11a2.34,2.34,0,0,0-3.13,1h0c-.08.2-.14.43-.22.68Z"/><path d="M73.27,155.63c-.28.22-.52.43-.79.61a12.17,12.17,0,0,1-6.59,2,25.72,25.72,0,0,1-8-.93,1.36,1.36,0,0,1-.41-.15C59.82,154.47,69.08,153.53,73.27,155.63Z"/><path d="M98.51,157.33c-1.61.28-3.22.63-4.84.81a17.52,17.52,0,0,1-7.06-.43,9,9,0,0,1-3.78-2.09c3.57-2.14,12.1-1.33,15.64,1.48Z"/><path d="M135.69,21.68a2.55,2.55,0,0,1-3-2,2.6,2.6,0,0,1,0-1.11,2.51,2.51,0,0,1,2-1.93,2.44,2.44,0,0,1,2.59,1.05c1.24,1.75.92,5.46-.6,7a3.93,3.93,0,0,1-3.35,1v-2C135,23.38,135.58,22.93,135.69,21.68Z"/><path d="M88.76,42.09a2.57,2.57,0,1,1-2.6,2.57,2.57,2.57,0,0,1,2.6-2.57Z"/><path d="M80.37,157.68A2.37,2.37,0,0,1,78,160.06h0a2.4,2.4,0,1,1,2.34-2.46v0Z"/><path d="M40.53,167.12a2,2,0,1,1,0-.06Z"/><path d="M101.13,167a2,2,0,0,1,2-2h.08a2,2,0,0,1-.1,4.06,2,2,0,0,1-2-2Z"/><path d="M124.87,45.81a8.69,8.69,0,0,1,0,1.25c0,.18-.21.33-.33.49l-.19-.11V44.25c.47-.16.72,0,.86.47s.41,1.15.66,1.83c.25-.67.5-1.24.67-1.83s.38-.63.87-.47V47.4c-.63.24-.53-.22-.54-.57a3.09,3.09,0,0,0-.14-1.09c-.17.44-.31.88-.5,1.31a1.82,1.82,0,0,1-.36.42,1.87,1.87,0,0,1-.36-.43c-.18-.41-.32-.83-.47-1.25Z"/><path d="M123.8,44.2c.11.84-.56.34-.85.64v2.59h-.63V44.74l-1.08-.07c.24-.23.36-.45.49-.46C122.4,44.18,123.08,44.2,123.8,44.2Z"/><path d="M107.41,97.37l-4.79,5.21a14.57,14.57,0,0,1,4.75,11.12A14.26,14.26,0,0,1,103,123.91a14.75,14.75,0,0,1-20.31.35L78,129.35l-4.69-5.08a14.75,14.75,0,0,1-20.84-.91h0l-.26-.3C47,117,47.5,108.34,53.38,102.59L48.6,97.37H58.76a1.73,1.73,0,0,0,.91-.27A33.45,33.45,0,0,1,96.28,97a2,2,0,0,0,1.07.33h9.36Zm-44.09,6.17a9.92,9.92,0,1,0,9.93,9.91,9.92,9.92,0,0,0-9.93-9.91Zm19.45,9.9a9.92,9.92,0,1,0,9.94-9.9h0A9.92,9.92,0,0,0,82.77,113.44ZM78,112a14.8,14.8,0,0,1,3.57-8.2,19.64,19.64,0,0,1,7.2-5.19,28.56,28.56,0,0,0-21.72,0C73,101.21,77,105.28,78,112Z"/><path d="M63.41,108.22a5.23,5.23,0,1,1-5.3,5.16h0v-.05A5.21,5.21,0,0,1,63.41,108.22Z"/><path d="M87.48,113.39a5.24,5.24,0,1,1,0,.09Z"/></svg>